ply
format ascii 1.0
comment Created by Open3D
element vertex 241
property double x
property double y
property double z
property double nx
property double ny
property double nz
property uchar red
property uchar green
property uchar blue
element face 498
property list uchar uint vertex_indices
end_header
19.0012 21.3307 -0.334001 0.370256 0.757656 0.537464 33 79 49
1.75119 16.3618 -0.334001 -0.249848 -0.561018 0.789199 33 79 49
3.03229 15.0807 -0.334001 -0.10926 -0.0805674 0.990743 33 79 49
19.0012 8.74045 -0.334001 0.103662 -0.635172 0.765382 33 79 49
0.00118964 16.8307 -0.334001 0.0147148 -0.169266 0.98546 33 79 49
-18.9988 21.3307 -0.334001 -0.225163 0.919013 0.323601 33 79 49
19.0012 6.93705 -5.4488 0.714444 -0.610476 0.341891 33 79 49
19.0012 21.3307 -15.8337 0.471315 0.856668 -0.20972 33 79 49
-1.74881 16.3618 -0.334001 0.342649 -0.508273 0.790095 33 79 49
-1.74881 16.3618 -6.834 0.307926 -0.699877 -0.64448 33 79 49
0.00118964 16.8307 -6.834 -0.0738307 -0.622279 -0.779306 33 79 49
-3.02991 15.0807 -0.334001 0.121145 -0.0600001 0.99082 33 79 49
-3.02991 15.0807 -6.834 0.617923 -0.446521 -0.64714 33 79 49
-3.56631 19.9279 -6.834 0.435388 -0.828681 -0.351746 33 79 49
-6.27491 17.4369 -6.834 0.7964 -0.553252 -0.244251 33 79 49
-3.49881 13.3307 -6.834 0.75744 -0.0698359 -0.64916 33 79 49
-7.47261 13.9573 -6.834 0.957567 -0.119419 -0.262308 33 79 49
-18.9988 8.74045 -0.334001 -0.141212 -0.433084 0.890223 33 79 49
-3.49881 13.3307 -0.334001 0.533853 0.0324757 0.844953 33 79 49
-6.87101 10.3268 -6.834 0.932389 0.300155 -0.201389 33 79 49
-3.02991 11.5807 -6.834 0.687732 0.325017 -0.649144 33 79 49
-7.41121 14.4735 -21.7293 0.999548 -0.00256847 -0.0299674 33 79 49
-6.91991 16.22 -21.0809 0.839655 0.171068 -0.515475 33 79 49
-7.46301 12.5991 -21.8052 0.958538 0.0368359 -0.282573 33 79 49
-8.24891 14.0705 -23.2374 0.805977 0.266733 -0.528446 33 79 49
-5.77411 18.1157 -19.1792 0.616127 0.233145 -0.752351 33 79 49
-18.9988 21.3307 -16.0337 -0.63554 0.719437 -0.280178 33 79 49
-8.92441 11.6326 -25.6789 0.247745 0.668894 -0.700859 33 79 49
-8.99881 -9.66925 -26.834 0.978756 0.19519 -0.0627496 33 79 49
-7.79301 -9.66925 -22.334 0.853819 0.175023 -0.490265 33 79 49
-7.06421 10.8148 -21.2591 0.932875 0.187244 -0.307707 33 79 49
-6.27501 9.22465 -20.3835 0.816213 0.296807 -0.495684 33 79 49
-4.49881 -9.66925 -19.0398 0.498612 0.19811 -0.843883 33 79 49
-4.32891 -9.66925 -24.334 0.808555 0.169802 -0.563388 33 79 49
-2.49881 -9.66925 -22.5039 0.417988 0.168601 -0.89267 33 79 49
-4.61491 7.41965 -6.834 0.627934 0.733311 -0.26068 33 79 49
-3.73731 6.82905 -18.6473 0.626153 0.605883 -0.490752 33 79 49
-1.74881 10.2996 -6.834 0.423731 0.632628 -0.648254 33 79 49
-1.24751 5.93545 -6.834 0.325825 -0.388416 0.861958 33 79 49
-1.98531 6.09875 -18.0561 0.297498 0.29389 -0.908363 33 79 49
-0.0815116 5.83125 -17.8344 0.000211727 0.763412 -0.645912 33 79 49
0.00118964 -9.66925 -17.834 0.00207434 0.186837 -0.982389 33 79 49
1.82549 6.05605 -18.0209 -0.29692 0.295557 -0.908011 33 79 49
1.24989 5.93545 -6.834 -0.292672 0.912059 -0.287215 33 79 49
0.00118964 5.83075 -6.958 -0.0103942 -0.617894 0.786192 33 79 49
4.50119 -9.66925 -19.0398 -0.493501 0.197811 -0.846952 33 79 49
0.00118964 -9.66925 -21.834 -0.0889037 0.245408 -0.965335 33 79 49
3.59829 6.74975 -18.5842 -0.622121 0.60484 -0.497125 33 79 49
6.19269 9.09815 -20.3022 -0.811223 0.301022 -0.501301 33 79 49
7.79539 -9.66925 -22.334 -0.871047 0.178865 -0.457476 33 79 49
2.50119 -9.66925 -22.5039 -0.569599 0.168514 -0.804463 33 79 49
4.61729 7.41965 -6.834 -0.622724 0.737429 -0.261559 33 79 49
6.87339 10.3268 -6.834 -0.902821 0.359771 -0.235541 33 79 49
7.01269 10.6682 -21.1914 -0.927389 0.196019 -0.318632 33 79 49
1.75119 10.2996 -6.834 -0.341284 0.690456 -0.637805 33 79 49
3.03229 11.5807 -6.834 -0.637646 0.435007 -0.635749 33 79 49
3.50119 13.3307 -6.834 -0.771287 0.0674433 -0.632904 33 79 49
7.47499 13.9573 -6.834 -0.969381 -0.0973148 -0.225456 33 79 49
7.44789 12.4381 -21.7793 -0.977381 0.0860376 -0.193195 33 79 49
7.43639 14.3142 -21.7625 -0.989883 -0.134821 -0.044221 33 79 49
8.28769 13.8989 -23.322 -0.638607 0.405602 -0.653963 33 79 49
3.03229 15.0807 -6.834 -0.705319 -0.320376 -0.632364 33 79 49
6.27729 17.4369 -6.834 -0.80073 -0.546895 -0.24441 33 79 49
6.98079 16.0757 -21.152 -0.836473 0.182212 -0.516828 33 79 49
8.93809 11.4473 -25.7702 -0.435565 0.593178 -0.677069 33 79 49
5.87449 17.9948 -19.2387 -0.609561 0.252536 -0.751439 33 79 49
4.25599 19.507 -17.735 -0.732853 -0.375642 -0.567291 33 79 49
3.56869 19.9279 -6.834 -0.439641 -0.826544 -0.351485 33 79 49
2.26629 20.4805 -16.772 -0.351988 -0.838451 -0.416058 33 79 49
1.75119 16.3618 -6.834 -0.455289 -0.626852 -0.632273 33 79 49
0.00118964 20.8307 -6.834 -0.00277532 -0.965543 -0.260229 33 79 49
0.0789904 20.8303 -16.4337 -0.00789397 -0.270824 -0.962597 33 79 49
-2.11511 20.5259 -16.7496 0.336255 -0.858469 -0.387252 33 79 49
3.50119 13.3307 -0.334001 -0.533071 -0.062795 0.843737 33 79 49
3.03229 11.5807 -0.334001 -0.492273 0.212187 0.844182 33 79 49
1.75119 10.2996 -0.334001 -0.41243 0.557651 0.720365 33 79 49
0.00118964 9.83075 -0.334001 -0.0426557 0.463896 0.884862 33 79 49
0.00118964 9.83075 -6.834 0.0486645 0.811041 -0.582962 33 79 49
-1.74881 10.2996 -0.334001 0.304384 0.621615 0.721766 33 79 49
-18.9988 3.13715 -9.3184 -0.870587 -0.265387 0.414305 33 79 49
-18.9988 6.93705 -5.4488 -0.561955 -0.747076 0.355083 33 79 49
19.0012 3.13715 -9.3184 0.770738 -0.306369 0.55866 33 79 49
19.0012 -1.94405 -11.2144 0.41983 -0.058804 0.905696 33 79 49
19.0012 -0.669251 -37.834 0.521833 0.114179 -0.845372 33 79 49
-18.9988 -1.94405 -11.2144 -0.420175 -0.191454 0.887016 33 79 49
-3.02991 11.5807 -0.334001 0.444744 0.296023 0.845324 33 79 49
-18.9988 -0.469251 -37.834 -0.72651 0.158522 -0.668621 33 79 49
-18.9988 -7.34995 -10.7798 -0.383412 0.205946 0.900323 33 79 49
-18.9988 -12.0631 -8.0965 -0.923579 0.235756 0.302359 33 79 49
19.0012 -7.34995 -10.7798 0.384227 0.336108 0.859884 33 79 49
19.0012 -12.0631 -8.0965 0.922721 0.279224 0.265745 33 79 49
-18.9988 -15.1961 -3.6696 -0.521849 0.760052 0.38729 33 79 49
-18.9988 -38.6693 -37.834 -0.706472 -0.327756 -0.627274 33 79 49
19.0012 -15.1961 -3.6696 0.519592 0.810177 0.271362 33 79 49
19.0012 -38.6693 -37.834 0.841349 -0.391042 -0.37312 33 79 49
-18.9988 -16.1592 1.6676 -0.960433 0.278353 0.00939615 33 79 49
19.0012 -16.1592 1.6676 0.960321 0.277087 -0.0317212 33 79 49
-18.9988 -14.7712 6.9104 -0.539322 0.774526 -0.330517 33 79 49
-18.9988 -38.6693 40.166 -0.663016 -0.461311 0.589578 33 79 49
19.0012 -14.7712 6.9104 0.53726 0.718323 -0.442 33 79 49
19.0012 -38.6693 40.166 0.771 -0.536783 0.342672 33 79 49
-18.9988 -11.2933 11.0718 -0.922013 0.258233 -0.288458 33 79 49
19.0012 -11.2933 11.0718 0.921617 0.213295 -0.324232 33 79 49
-18.9988 -6.38015 13.3685 -0.401057 0.264238 -0.877115 33 79 49
-18.9988 -0.669251 40.166 -0.725297 0.1569 0.670319 33 79 49
19.0012 -6.38015 13.3685 0.398302 0.132283 -0.907666 33 79 49
19.0012 -0.669251 40.166 0.519114 0.112336 0.84729 33 79 49
-18.9988 -0.956751 13.3681 -0.418338 -0.130891 -0.898811 33 79 49
19.0012 -0.956751 13.3681 0.415626 -0.262481 -0.870838 33 79 49
-18.9988 3.95605 11.0708 -0.785869 -0.339908 -0.516597 33 79 49
19.0012 3.95605 11.0708 0.784718 -0.413411 -0.461854 33 79 49
-18.9988 7.43335 6.9089 -0.542393 -0.71576 -0.439883 33 79 49
-18.9988 21.3307 18.166 -0.59883 0.740212 0.30576 33 79 49
19.0012 21.3307 18.166 0.442385 0.867914 0.22588 33 79 49
19.0012 7.43335 6.9089 0.542383 -0.772734 -0.329701 33 79 49
-18.9988 8.82075 1.666 -0.109285 -0.673937 -0.730661 33 79 49
-18.9988 21.3307 1.666 -0.217544 0.92633 -0.307551 33 79 49
19.0012 21.3307 1.666 0.364522 0.775593 -0.515343 33 79 49
19.0012 8.82075 1.666 0.149093 -0.459995 -0.875315 33 79 49
1.75119 16.3618 1.666 -0.458749 -0.772244 -0.439531 33 79 49
0.00118964 16.8307 1.666 -0.00426689 -0.490358 -0.871511 33 79 49
3.03229 15.0807 1.666 -0.293611 -0.179984 -0.938828 33 79 49
1.34759 16.5614 20.2673 -0.341729 -0.930939 0.128739 33 79 49
2.47689 15.8047 20.5132 -0.715982 -0.685848 0.130318 33 79 49
-1.74881 16.3618 1.666 0.458756 -0.772243 -0.439527 33 79 49
-1.34521 16.5614 20.2673 0.341729 -0.930939 0.128739 33 79 49
0.00118964 16.8307 20.166 -0.00022112 -0.9921 0.12545 33 79 49
1.75699 19.1578 20.3389 -0.07913 0.491875 0.867063 33 79 49
0.00118964 19.3307 20.166 -8.90086e-05 0.643557 0.765398 33 79 49
3.23229 14.676 20.766 -0.940479 -0.336152 0.050007 33 79 49
3.44529 18.6456 20.8511 -0.363809 0.299045 0.882165 33 79 49
-1.75461 19.1578 20.3389 0.0791287 0.491873 0.867064 33 79 49
-2.47451 15.8047 20.5132 0.715981 -0.685847 0.130323 33 79 49
-3.44301 18.6456 20.8511 0.150255 0.54216 0.826732 33 79 49
-3.02991 15.0807 1.666 0.293611 -0.179984 -0.938828 33 79 49
-3.22991 14.676 20.766 0.940479 -0.336151 0.0500098 33 79 49
-6.36281 16.6947 22.802 0.565027 0.219629 0.795303 33 79 49
-3.49881 13.3307 20.8744 0.768102 -0.0100621 0.640248 33 79 49
-3.49881 13.3307 1.666 0.91036 -0.00765488 -0.413746 33 79 49
-3.02991 11.5807 1.666 0.74648 0.438769 -0.50025 33 79 49
-3.22991 11.9854 20.766 0.923931 0.283955 0.25636 33 79 49
-4.49881 -9.66925 21.3718 0.512232 0.149036 0.845817 33 79 49
-2.47451 10.8567 20.5132 0.544837 0.355309 0.759545 33 79 49
-1.74881 10.2996 1.666 0.489348 0.795927 -0.356426 33 79 49
0.00118964 9.83075 1.666 5.0271e-05 0.886482 -0.462763 33 79 49
-1.34521 10.1001 20.2673 0.342236 0.804088 0.486125 33 79 49
0.00118964 -9.66925 20.166 8.32436e-09 0.137603 0.990487 33 79 49
0.00118964 9.83075 20.166 -0.0137901 0.688303 0.725292 33 79 49
1.75119 10.2996 1.666 -0.489348 0.795927 -0.356426 33 79 49
1.34759 10.1001 20.2673 -0.361078 0.797923 0.482639 33 79 49
3.50119 13.3307 1.666 -0.91036 -0.00765488 -0.413746 33 79 49
3.03229 11.5807 1.666 -0.74648 0.438769 -0.50025 33 79 49
2.47689 10.8567 20.5132 -0.553754 0.351701 0.75476 33 79 49
3.23229 11.9854 20.766 -0.923931 0.283955 0.25636 33 79 49
4.50119 -9.66925 21.3718 -0.519696 0.141982 0.842471 33 79 49
3.50119 13.3307 20.8744 -0.976724 -0.0156923 0.213927 33 79 49
6.36519 16.6947 22.802 -0.566021 0.222207 0.793879 33 79 49
7.79539 -9.66925 24.666 -0.843115 0.153583 0.515334 33 79 49
8.31609 13.7748 25.7219 -0.780823 0.278379 0.559304 33 79 49
9.00119 10.3307 29.166 -0.306728 0.673476 0.672568 33 79 49
9.00119 -9.66925 29.166 -0.988574 0.148858 0.0237225 33 79 49
8.31609 6.88665 32.6102 -0.901033 0.420157 0.10774 33 79 49
4.33129 -9.66925 26.666 -0.808547 0.171351 0.562931 33 79 49
5.00119 -9.66925 29.166 -0.981605 0.171331 0.0842511 33 79 49
7.79539 -9.66925 33.666 -0.827552 0.287546 -0.482157 33 79 49
6.36519 3.96675 35.53 -0.788676 0.586084 -0.18573 33 79 49
2.50119 -9.66925 33.4961 -0.56695 0.1704 -0.805935 33 79 49
4.50119 -9.66925 36.9602 -0.486524 0.26505 -0.832492 33 79 49
4.33129 -9.66925 31.666 -0.902581 0.0904271 -0.420915 33 79 49
5.00119 -38.6693 29.166 -0.948928 -0.304134 -0.0838895 33 79 49
4.33129 -38.6693 26.666 -0.22195 -0.96967 0.102359 33 79 49
4.33129 -38.6693 31.666 -0.761848 -0.362587 -0.536767 33 79 49
0.00118964 -9.66925 34.166 -0.0863217 0.249897 -0.964417 33 79 49
2.50119 -38.6693 33.4961 -0.401449 -0.306614 -0.863033 33 79 49
2.50119 -38.6693 24.8359 -0.270104 -0.884277 0.380917 33 79 49
4.33129 -38.6693 -24.334 -0.0849758 -0.994622 -0.059217 33 79 49
0.00118964 -38.6693 34.166 0.0529533 -0.792714 -0.60729 33 79 49
-2.49881 -38.6693 33.4961 0.547539 -0.30497 -0.779227 33 79 49
-2.49881 -9.66925 33.4961 0.413616 0.172472 -0.893966 33 79 49
-4.32891 -9.66925 31.666 0.806448 0.17258 -0.565559 33 79 49
-4.32891 -38.6693 31.666 0.84655 -0.361125 -0.391077 33 79 49
-4.49881 -9.66925 36.9602 0.484694 0.268219 -0.832544 33 79 49
-7.79301 -9.66925 33.666 0.838366 0.247771 -0.485543 33 79 49
-4.99881 -9.66925 29.166 0.992143 0.0911333 -0.085714 33 79 49
-8.99881 -9.66925 29.166 0.983117 0.180852 0.0278116 33 79 49
-4.99881 -38.6693 29.166 0.948129 -0.306424 0.084588 33 79 49
-4.32891 -9.66925 26.666 0.891824 0.171664 0.418548 33 79 49
-4.32891 -38.6693 26.666 0.198409 -0.970016 0.140365 33 79 49
-4.32891 -38.6693 -24.334 0.0941765 -0.994614 -0.043287 33 79 49
-2.49881 -38.6693 24.8359 0.195077 -0.883952 0.42494 33 79 49
-2.49881 -9.66925 24.8359 0.5631 0.171262 0.808448 33 79 49
-7.79301 -9.66925 24.666 0.84019 0.152345 0.520453 33 79 49
0.00118964 -9.66925 24.166 0.0859097 0.245372 0.965615 33 79 49
-8.31371 13.7748 25.7219 0.776991 0.281911 0.56286 33 79 49
2.50119 -9.66925 24.8359 -0.418261 0.171745 0.891942 33 79 49
0.00118964 -38.6693 24.166 -0.0637818 -0.726378 0.68433 33 79 49
0.00118964 -38.6693 -21.834 0.0357656 -0.905825 -0.422139 33 79 49
2.50119 -38.6693 -22.5039 -0.304531 -0.685998 -0.660808 33 79 49
-2.49881 -38.6693 -22.5039 0.417163 -0.686148 -0.595967 33 79 49
4.33129 -9.66925 -24.334 -0.905017 0.089546 -0.415844 33 79 49
5.00119 -9.66925 -26.834 -0.981412 0.169466 0.0900628 33 79 49
5.00119 -38.6693 -26.834 -0.948589 -0.30566 -0.0821567 33 79 49
9.00119 -9.66925 -26.834 -0.983531 0.176619 0.0383682 33 79 49
4.33129 -38.6693 -29.334 -0.844902 -0.362266 0.393578 33 79 49
4.33129 -9.66925 -29.334 -0.805599 0.170289 0.567461 33 79 49
2.50119 -38.6693 -31.1641 -0.547479 -0.306355 0.778725 33 79 49
2.50119 -9.66925 -31.1641 -0.415971 0.170156 0.893317 33 79 49
7.79539 -9.66925 -31.334 -0.834825 0.260272 0.485103 33 79 49
0.00118964 -38.6693 -31.834 -0.0541592 -0.791686 0.608523 33 79 49
0.00118964 -9.66925 -31.834 0.0847838 0.247088 0.965277 33 79 49
-2.49881 -38.6693 -31.1641 0.401439 -0.306388 0.863118 33 79 49
4.50119 -9.66925 -34.6282 -0.507795 0.261491 0.820833 33 79 49
-2.49881 -9.66925 -31.1641 0.567063 0.170148 0.805909 33 79 49
0.00118964 -9.66925 -35.834 0.00204231 0.232463 0.972603 33 79 49
-4.49881 -9.66925 -34.6282 0.511141 0.263204 0.818205 33 79 49
-4.32891 -38.6693 -29.334 0.762181 -0.362217 0.536543 33 79 49
-4.32891 -9.66925 -29.334 0.893063 0.170449 0.416397 33 79 49
-7.79301 -9.66925 -31.334 0.871829 0.208853 0.44305 33 79 49
-2.55091 1.81355 -35.4646 0.35154 0.40798 0.842598 33 79 49
-6.77401 4.54205 -32.7582 0.81764 0.521101 0.244782 33 79 49
-4.85481 2.87875 -34.4116 0.53495 0.844878 0.00319201 33 79 49
-8.15651 6.67195 -30.6356 0.705575 0.63944 -0.305418 33 79 49
-8.89271 9.09965 -28.2118 0.941347 0.315188 -0.120512 33 79 49
-0.0448123 1.43105 -35.8339 0.00739167 0.918121 -0.396232 33 79 49
2.46489 1.76155 -35.4902 -0.340371 0.399818 0.851054 33 79 49
4.77949 2.77875 -34.4608 -0.524905 0.851038 0.0144677 33 79 49
6.71549 4.40215 -32.8272 -0.813135 0.526106 0.249045 33 79 49
8.11959 6.50315 -30.7188 -0.918081 0.393545 -0.047432 33 79 49
8.88059 8.91525 -28.3027 -0.812808 0.474052 -0.338554 33 79 49
-4.99881 -38.6693 -26.834 0.948227 -0.305548 0.0866388 33 79 49
-4.99881 -9.66925 -26.834 0.9923 0.0894979 -0.0856168 33 79 49
-4.12451 19.594 -17.6922 0.729917 -0.397672 -0.555948 33 79 49
-8.99881 10.3307 29.166 0.303673 0.673264 0.674165 33 79 49
-8.31371 6.88665 32.6102 0.898398 0.423537 0.116178 33 79 49
-6.36281 3.96675 35.53 0.788255 0.582564 -0.198174 33 79 49
0.00118964 1.33075 38.166 1.346e-05 0.865238 0.501361 33 79 49
-3.44301 2.01585 37.4809 0.510228 0.856247 -0.0806696 33 79 49
-1.75461 1.50365 37.9931 0.285211 0.277138 -0.917523 33 79 49
0.00118964 -9.66925 38.166 -0.000453738 0.262095 -0.965042 33 79 49
1.75699 1.50365 37.9931 -0.285215 0.277137 -0.917522 33 79 49
3.44529 2.01585 37.4809 -0.510228 0.856248 -0.0806696 33 79 49
3 0 1 2
3 3 0 2
3 4 1 0
3 5 4 0
3 0 6 7
3 3 6 0
3 0 7 5
3 8 4 5
3 8 9 4
3 10 4 9
3 4 10 1
3 8 5 11
3 12 9 8
3 11 12 8
3 13 9 14
3 10 9 13
3 12 14 9
3 12 15 16
3 14 12 16
3 12 11 15
3 17 18 11
3 5 17 11
3 18 15 11
3 16 15 19
3 20 19 15
3 20 15 18
3 19 21 16
3 22 16 21
3 16 22 14
3 23 21 19
3 21 23 24
3 22 21 24
3 22 25 14
3 22 24 26
3 25 22 26
3 24 27 26
3 24 28 27
3 24 29 28
3 24 23 29
3 30 23 19
3 23 30 29
3 31 30 19
3 29 30 31
3 32 29 31
3 33 29 34
3 28 29 33
3 32 34 29
3 31 35 36
3 35 31 19
3 36 32 31
3 19 20 35
3 35 37 38
3 20 37 35
3 38 36 35
3 39 36 38
3 36 39 32
3 40 39 38
3 39 40 41
3 32 39 41
3 42 40 43
3 44 43 40
3 44 40 38
3 41 40 42
3 45 41 42
3 41 45 46
3 32 41 46
3 47 42 43
3 47 45 42
3 45 48 49
3 47 48 45
3 46 45 50
3 49 50 45
3 47 51 48
3 51 47 43
3 52 48 51
3 53 48 52
3 48 53 49
3 43 54 51
3 55 51 54
3 51 55 52
3 52 56 57
3 55 56 52
3 58 53 52
3 57 58 52
3 58 49 53
3 59 58 57
3 58 60 49
3 59 60 58
3 61 57 56
3 57 61 62
3 63 59 57
3 62 63 57
3 59 63 60
3 60 7 64
3 60 63 7
3 64 49 60
3 65 63 62
3 63 65 7
3 66 65 62
3 65 66 7
3 66 67 68
3 67 66 62
3 66 68 7
3 62 69 67
3 10 67 69
3 70 67 10
3 70 68 67
3 71 68 70
3 7 68 71
3 70 10 13
3 72 71 70
3 13 72 70
3 10 69 1
3 1 69 2
3 61 69 62
3 61 2 69
3 73 3 2
3 2 61 73
3 61 56 73
3 73 74 3
3 73 56 74
3 55 74 56
3 74 75 3
3 74 55 75
3 55 54 75
3 75 76 3
3 75 54 76
3 77 54 43
3 77 76 54
3 76 78 17
3 3 76 17
3 76 77 78
3 77 38 37
3 38 77 43
3 77 37 78
3 6 43 44
3 6 38 43
3 79 38 80
3 79 44 38
3 6 80 38
3 81 7 6
3 3 80 6
3 6 44 81
3 81 44 79
3 81 82 83
3 7 81 83
3 81 84 82
3 84 81 79
3 7 26 5
3 83 64 7
3 7 71 26
3 5 26 80
3 17 5 80
3 85 17 78
3 85 18 17
3 3 17 80
3 78 37 85
3 20 85 37
3 85 20 18
3 80 26 79
3 79 86 84
3 26 86 79
3 87 82 84
3 87 84 86
3 87 88 89
3 82 87 89
3 88 87 86
3 82 89 83
3 89 90 83
3 89 88 90
3 91 90 88
3 92 88 86
3 91 88 92
3 90 93 94
3 83 90 94
3 90 91 93
3 91 95 93
3 91 92 95
3 93 96 94
3 93 95 96
3 97 96 95
3 98 97 95
3 92 98 95
3 96 99 100
3 94 96 100
3 96 97 99
3 97 101 99
3 101 97 98
3 99 102 100
3 99 101 102
3 103 102 101
3 104 101 98
3 103 101 104
3 102 105 106
3 100 102 106
3 102 103 105
3 103 107 105
3 107 103 104
3 105 108 106
3 105 107 108
3 109 108 107
3 107 104 109
3 108 110 106
3 108 109 110
3 109 111 110
3 109 112 111
3 104 112 109
3 106 110 113
3 114 113 110
3 110 111 114
3 115 114 111
3 116 111 112
3 115 111 116
3 117 113 114
3 118 117 114
3 118 114 115
3 119 120 117
3 121 119 117
3 118 121 117
3 117 120 116
3 117 116 113
3 122 119 123
3 120 119 122
3 121 123 119
3 120 124 116
3 120 125 124
3 126 125 120
3 126 120 122
3 123 127 122
3 128 122 127
3 126 122 128
3 123 121 129
3 130 127 123
3 129 130 123
3 127 130 113
3 127 113 128
3 128 131 125
3 126 128 125
3 112 131 128
3 113 112 128
3 125 131 132
3 133 132 131
3 133 131 112
3 132 124 125
3 134 124 132
3 135 134 132
3 135 132 133
3 133 136 137
3 135 133 137
3 136 133 112
3 135 138 134
3 135 137 138
3 124 134 116
3 134 138 115
3 116 134 115
3 138 139 115
3 138 137 140
3 139 138 140
3 141 137 136
3 140 137 141
3 142 139 140
3 142 140 141
3 139 143 115
3 139 142 143
3 115 143 144
3 115 144 118
3 145 143 142
3 144 143 145
3 146 142 141
3 145 142 146
3 147 144 145
3 147 145 146
3 144 148 118
3 144 149 148
3 147 149 144
3 150 121 118
3 151 150 118
3 148 151 118
3 152 148 149
3 151 148 152
3 149 147 146
3 149 146 152
3 153 151 152
3 154 153 152
3 146 154 152
3 151 153 150
3 150 155 129
3 121 150 129
3 153 155 150
3 155 153 154
3 130 155 154
3 129 155 130
3 130 154 156
3 130 156 113
3 156 157 158
3 154 157 156
3 156 158 113
3 113 159 106
3 158 159 113
3 116 112 113
3 160 158 157
3 159 158 160
3 159 160 161
3 159 161 106
3 162 163 160
3 160 163 164
3 157 162 160
3 160 164 161
3 161 164 165
3 161 165 106
3 164 166 167
3 168 166 164
3 163 168 164
3 167 165 164
3 169 163 170
3 168 163 169
3 162 170 163
3 168 171 166
3 171 168 169
3 172 167 166
3 173 166 171
3 172 166 173
3 171 100 173
3 171 169 100
3 100 169 170
3 170 162 174
3 175 170 174
3 175 100 170
3 98 100 106
3 100 98 176
3 173 100 176
3 175 94 100
3 176 172 173
3 177 178 176
3 172 176 178
3 176 98 177
3 179 178 177
3 180 179 177
3 180 177 98
3 181 178 182
3 172 178 181
3 179 182 178
3 179 183 184
3 182 179 184
3 179 180 183
3 185 183 180
3 185 180 98
3 183 186 184
3 186 183 185
3 187 186 185
3 187 185 98
3 104 98 106
3 188 98 92
3 188 187 98
3 189 190 187
3 186 187 190
3 189 187 188
3 186 190 191
3 184 186 191
3 191 190 141
3 192 141 190
3 192 190 189
3 191 141 136
3 191 193 184
3 193 191 136
3 146 141 192
3 146 192 154
3 192 194 154
3 192 195 194
3 195 192 189
3 154 194 157
3 162 157 194
3 174 194 195
3 162 194 174
3 195 189 196
3 174 195 196
3 197 174 196
3 175 174 197
3 198 34 196
3 46 196 34
3 196 46 197
3 198 196 189
3 198 189 188
3 33 34 198
3 188 33 198
3 34 32 46
3 46 50 197
3 197 50 175
3 199 175 50
3 199 50 49
3 199 200 201
3 175 199 201
3 199 49 200
3 202 49 64
3 49 202 200
3 201 200 203
3 204 203 200
3 200 202 204
3 201 203 94
3 175 201 94
3 203 204 205
3 203 205 94
3 204 206 205
3 204 207 206
3 202 207 204
3 205 206 208
3 94 205 208
3 83 94 92
3 92 94 208
3 209 208 206
3 208 209 210
3 210 92 208
3 211 206 207
3 206 211 209
3 209 212 210
3 213 214 209
3 211 213 209
3 209 214 212
3 210 212 215
3 210 215 92
3 216 215 212
3 212 217 216
3 214 217 212
3 214 213 218
3 214 219 217
3 220 219 214
3 220 214 218
3 217 221 222
3 28 217 222
3 219 221 217
3 28 216 217
3 219 220 86
3 221 219 86
3 220 218 86
3 218 223 86
3 213 223 218
3 223 224 83
3 86 223 83
3 224 223 213
3 211 224 213
3 224 225 83
3 225 224 211
3 211 207 226
3 225 211 226
3 225 226 83
3 226 227 83
3 226 207 227
3 228 64 83
3 227 228 83
3 86 83 92
3 202 227 207
3 228 227 202
3 228 202 64
3 229 188 92
3 215 229 92
3 229 230 188
3 216 230 229
3 215 216 229
3 33 188 230
3 230 216 28
3 230 28 33
3 27 28 222
3 27 222 86
3 26 27 86
3 222 221 86
3 231 25 26
3 72 231 26
3 71 72 26
3 14 231 13
3 25 231 14
3 72 13 231
3 193 136 112
3 193 232 184
3 232 193 112
3 104 232 112
3 184 232 233
3 233 232 104
3 182 184 233
3 234 182 233
3 234 233 104
3 104 106 235
3 236 234 104
3 237 236 104
3 237 104 235
3 234 236 181
3 182 234 181
3 237 181 236
3 237 238 181
3 237 235 238
3 238 235 239
3 235 106 239
3 240 239 106
3 165 240 106
3 167 238 239
3 240 167 239
3 238 167 172
3 238 172 181
3 240 165 167
