ply
format ascii 1.0
comment Created by Open3D
element vertex 8
property double x
property double y
property double z
property double nx
property double ny
property double nz
property uchar red
property uchar green
property uchar blue
element face 12
property list uchar uint vertex_indices
end_header
-52 41.2 25.5 -0.640499 0.404198 0.652982 135 120 117
-52 41.2 -25.5 -0.294483 0.743356 -0.600585 135 120 117
-52 -41.2 -25.5 -0.384847 -0.485729 -0.784831 135 120 117
-52 -41.2 25.5 -0.228071 -0.287857 0.930119 135 120 117
52 -41.2 -25.5 0.640435 -0.404158 -0.653069 135 120 117
52 41.2 -25.5 0.228048 0.287828 -0.930134 135 120 117
52 41.2 25.5 0.384874 0.485764 0.784796 135 120 117
52 -41.2 25.5 0.294508 -0.743418 0.600495 135 120 117
3 0 1 2
3 0 2 3
3 4 5 6
3 7 4 6
3 2 4 7
3 3 2 7
3 6 5 1
3 6 1 0
3 2 1 5
3 4 2 5
3 6 0 3
3 6 3 7
