ply
format ascii 1.0
comment Created by Open3D
element vertex 499
property double x
property double y
property double z
property double nx
property double ny
property double nz
property uchar red
property uchar green
property uchar blue
element face 994
property list uchar uint vertex_indices
end_header
41.9103 4.83866 -18.6602 -0.0806208 -0.0355946 -0.996109 60 57 52
41.9103 10.8387 -19.6602 -0.181955 -0.187417 -0.965281 60 57 52
42.3103 4.83866 -18.6602 -0.784495 -0.0515837 -0.617987 60 57 52
41.9103 -7.16134 -18.6602 -0.220718 0.00567866 -0.975321 60 57 52
42.3103 -7.16134 -18.6602 -0.372091 -0.000727714 -0.928196 60 57 52
41.9103 4.83866 -18.6532 -0.079158 -0.0835054 -0.993358 60 57 52
41.9103 10.8387 -19.6534 -0.046458 0.980486 -0.191021 60 57 52
42.3103 10.8387 -19.6602 -0.999238 0.0327399 -0.0212436 60 57 52
42.3103 18.0387 -21.6602 -0.656391 -0.490548 0.573162 60 57 52
42.3103 10.8387 -7.6584 -0.992793 0.09386 0.0745076 60 57 52
41.4272 10.8387 -7.6436 -0.989581 0.132702 0.0558481 60 57 52
41.2262 10.8387 -19.6419 -0.992179 0.091879 -0.0844878 60 57 52
41.4104 4.83866 -8.6435 -0.989175 -0.00760784 0.146545 60 57 52
41.243 4.83866 -18.6421 -0.998978 -0.00217899 -0.0451474 60 57 52
41.243 -7.16134 -18.6421 -0.374579 0.907051 -0.192221 60 57 52
41.9103 -7.16134 -18.6532 -0.0741467 -0.0193302 -0.99706 60 57 52
41.3934 -5.66134 -9.6602 -0.818961 0.561336 0.119187 60 57 52
41.2594 -5.66134 -17.6602 -0.327634 0.929964 -0.166804 60 57 52
23.9103 -7.16134 -18.6602 -0.0563704 0.0700416 -0.99595 60 57 52
42.3103 -21.1613 -18.6602 -0.290016 -0.55795 -0.777549 60 57 52
42.3103 -24.1613 -21.6602 -0.140839 0.0902682 0.985909 60 57 52
23.9103 -21.1613 -18.6602 -0.0264272 -0.582195 -0.812619 60 57 52
42.3103 -21.1613 -8.6602 -0.212609 -0.826597 0.52109 60 57 52
42.3103 -24.1613 -13.9102 -0.242162 0.957697 -0.155482 60 57 52
23.9103 -21.1613 -8.6602 -0.0484914 -0.36632 0.929225 60 57 52
23.9103 -20.1613 -18.1602 -0.998906 -0.0443438 -0.0148766 60 57 52
23.9103 -7.16134 -8.6602 -0.0331071 0.125433 0.99155 60 57 52
41.4102 -9.16134 -8.6602 -0.00193972 -0.000583466 0.999998 60 57 52
23.9103 -20.1613 -8.9602 -0.987775 -0.0812926 0.133013 60 57 52
23.9103 -7.66134 -18.1602 -0.97716 0.136161 -0.16315 60 57 52
23.8103 -20.1613 -18.1602 -0.999677 -0.0204631 -0.0151033 60 57 52
23.9103 -7.66134 -8.9602 -0.983121 0.132224 0.126454 60 57 52
23.8103 -20.1613 -8.9602 -0.999984 -0.00245455 0.00513169 60 57 52
23.8103 -7.66134 -8.9602 -0.999582 0.0192056 0.0216107 60 57 52
23.8103 -7.66134 -18.1602 -0.999964 0.00577175 -0.00629649 60 57 52
23.9103 -7.16134 -17.6602 -0.266875 0.534562 -0.801886 60 57 52
23.9103 -7.16134 -9.6602 -0.730598 0.385009 0.56391 60 57 52
41.3934 -7.16134 -9.6602 -0.038707 0.550527 0.83392 60 57 52
23.9103 -5.66134 -9.6602 -0.0451345 0.981794 0.184509 60 57 52
23.9103 -5.66134 -17.6602 -0.171966 0.968057 -0.182467 60 57 52
41.4102 -7.16134 -8.6602 -0.351989 0.409961 0.841448 60 57 52
41.2594 -7.16134 -17.6602 -0.0742217 0.543657 -0.83602 60 57 52
41.4104 -9.16134 -8.6435 -0.0319817 -0.0119018 0.999418 60 57 52
42.3103 4.83866 -8.6585 -0.97563 -0.00391051 0.219389 60 57 52
42.3103 -9.16134 -8.6585 -0.997291 -0.00158014 0.0735426 60 57 52
42.3103 -9.16134 -8.6602 -0.0907226 -0.026339 0.995528 60 57 52
42.3103 -21.1613 -4.4102 -0.437543 -0.521071 -0.732831 60 57 52
42.3103 -7.16134 -4.4102 -0.309627 -0.000527915 -0.950858 60 57 52
42.3103 4.83866 -4.4102 -0.994388 -0.00339514 -0.10574 60 57 52
42.3103 10.8387 -5.4102 -0.999934 0.0100525 -0.00549287 60 57 52
41.9103 4.83866 -4.4102 -0.0861054 0.00664443 -0.996264 60 57 52
41.9103 10.8387 -5.4102 -0.208821 -0.164747 -0.963977 60 57 52
42.3103 18.0387 22.8398 -0.663466 -0.490626 -0.564889 60 57 52
42.3103 10.8387 6.5916 -0.992755 0.0942658 0.0745016 60 57 52
41.9103 10.8387 -5.4034 -0.0494247 0.983092 -0.176318 60 57 52
41.9103 -7.16134 -4.4102 -0.227696 0.00602007 -0.973714 60 57 52
41.9103 4.83866 -4.4032 -0.0833101 -0.0535993 -0.995081 60 57 52
41.4272 10.8387 6.6064 -0.989602 0.132553 0.0558405 60 57 52
41.2262 10.8387 -5.3919 -0.991289 0.0924488 -0.0938026 60 57 52
41.9103 -7.16134 -4.4032 -0.0811608 -0.0184329 -0.996531 60 57 52
41.243 4.83866 -4.3921 -0.999056 -0.0005609 -0.0434472 60 57 52
23.9103 -7.16134 -4.4102 -0.0515123 0.070023 -0.996214 60 57 52
41.243 -7.16134 -4.3921 -0.376745 0.903446 -0.204568 60 57 52
23.9103 -7.16134 -3.4102 -0.26761 0.535821 -0.8008 60 57 52
41.2594 -7.16134 -3.4102 -0.0780479 0.539071 -0.838636 60 57 52
41.2594 -5.66134 -3.4102 -0.327958 0.92957 -0.168353 60 57 52
23.9103 -5.66134 -3.4102 -0.17263 0.96825 -0.180807 60 57 52
23.9103 -7.66134 -3.9602 -0.977777 0.140396 -0.155699 60 57 52
23.9103 -7.16134 4.5898 -0.730597 0.385556 0.563537 60 57 52
41.3934 -5.66134 4.5898 -0.818804 0.561561 0.119207 60 57 52
23.9103 -5.66134 4.5898 -0.0451681 0.981808 0.184427 60 57 52
23.9103 -7.16134 5.5898 -0.0377843 0.125437 0.991382 60 57 52
41.3934 -7.16134 4.5898 -0.038809 0.550615 0.833857 60 57 52
23.9103 -7.66134 5.2398 -0.984901 0.127142 0.117494 60 57 52
41.4102 -7.16134 5.5898 -0.351986 0.410093 0.841385 60 57 52
41.4104 4.83866 5.6065 -0.989209 -0.0071374 0.146334 60 57 52
41.4104 -9.16134 5.6065 -0.0323304 -0.0106803 0.99942 60 57 52
41.4102 -9.16134 5.5898 -0.00195618 -0.000523471 0.999998 60 57 52
42.3103 4.83866 5.5915 -0.975668 -0.00296347 0.219235 60 57 52
42.3103 4.83866 9.8398 -0.994205 -0.00589395 -0.107337 60 57 52
42.3103 10.8387 8.8398 -0.999133 0.0360559 -0.0208201 60 57 52
42.3103 -7.16134 9.8398 -0.309568 -0.000668123 -0.950877 60 57 52
41.9103 4.83866 9.8398 -0.0896007 -0.00818956 -0.995944 60 57 52
41.9103 10.8387 8.8398 -0.206156 -0.188065 -0.960277 60 57 52
42.3103 10.8387 20.8416 -0.99706 0.0616418 0.0455056 60 57 52
41.9103 10.8387 8.8466 -0.0492462 0.982963 -0.177083 60 57 52
41.9103 -7.16134 9.8398 -0.223746 -0.00495246 -0.974635 60 57 52
41.9103 4.83866 9.8468 -0.0858988 -0.0640883 -0.99424 60 57 52
41.4272 10.8387 20.8564 -0.98975 0.133636 0.0503651 60 57 52
41.2262 10.8387 8.8581 -0.991449 0.090913 -0.0936128 60 57 52
41.9103 -7.16134 9.8468 -0.0799574 -0.0217871 -0.99656 60 57 52
41.243 4.83866 9.8579 -0.999034 -0.0014235 -0.0439302 60 57 52
23.9103 -7.16134 9.8398 -0.0362047 0.0699752 -0.996892 60 57 52
41.243 -7.16134 9.8579 -0.376752 0.903382 -0.204839 60 57 52
23.9103 -7.16134 10.8398 -0.331634 0.523966 -0.784524 60 57 52
41.2594 -7.16134 10.8398 -0.0778863 0.538638 -0.83893 60 57 52
41.2594 -5.66134 10.8398 -0.327903 0.929544 -0.168603 60 57 52
41.3934 -5.66134 18.8398 -0.81893 0.561622 0.118046 60 57 52
23.9103 -5.66134 10.8398 -0.172699 0.968213 -0.180939 60 57 52
23.9103 -5.66134 18.8398 -0.0450844 0.981681 0.18512 60 57 52
41.4102 -7.16134 19.8398 -0.352725 0.411186 0.840542 60 57 52
41.4104 4.83866 19.8565 -0.989029 -0.0112278 0.147293 60 57 52
41.3934 -7.16134 18.8398 -0.0388288 0.551851 0.833038 60 57 52
23.9103 -7.16134 18.8398 -0.677935 0.412733 0.608322 60 57 52
23.9103 -7.16134 19.8398 -0.0515848 0.125342 0.990772 60 57 52
23.9103 -7.66134 19.3398 -0.992853 0.0805682 0.0880404 60 57 52
41.4104 -9.16134 19.8565 -0.0316576 -0.00963419 0.999452 60 57 52
41.4102 -9.16134 19.8398 -0.00191024 -0.000466883 0.999998 60 57 52
23.9103 -21.1613 19.8398 -0.0347658 -0.365686 0.930089 60 57 52
23.9103 -20.1613 19.3398 -0.994716 -0.0385056 0.0951716 60 57 52
23.9103 -7.66134 10.1398 -0.94605 0.214515 -0.242841 60 57 52
23.8103 -7.66134 19.3398 -0.999547 0.0192233 0.0231489 60 57 52
23.9103 -20.1613 10.1398 -0.996862 -0.0318933 -0.0724462 60 57 52
23.8103 -7.66134 10.1398 -0.99997 0.00558592 -0.0054524 60 57 52
23.8103 -20.1613 10.1398 -0.999672 -0.012913 -0.0221127 60 57 52
23.8103 -20.1613 19.3398 -0.999965 -0.00153455 0.00822822 60 57 52
23.9103 -21.1613 9.8398 -0.0384142 -0.580391 -0.813431 60 57 52
42.3103 -21.1613 19.8398 -0.202891 -0.82943 0.520463 60 57 52
42.3103 -21.1613 9.8398 -0.437736 -0.521244 -0.732592 60 57 52
42.3103 -21.1613 5.5898 -0.385539 -0.780352 0.492352 60 57 52
42.3103 -9.16134 5.5915 -0.997287 -0.00151145 0.0735982 60 57 52
42.3103 -24.1613 15.0898 -0.127891 0.987868 0.0880929 60 57 52
42.3103 -9.16134 5.5898 -0.0909403 -0.0252318 0.995537 60 57 52
23.9103 -21.1613 5.5898 -0.0499994 -0.366563 0.929049 60 57 52
23.9103 -20.1613 5.2398 -0.988938 -0.0813009 0.124067 60 57 52
23.9103 -21.1613 -4.4102 -0.0270936 -0.581669 -0.812974 60 57 52
23.9103 -20.1613 -3.9602 -0.998818 -0.0344121 -0.034322 60 57 52
23.8103 -20.1613 5.2398 -0.999982 -0.00293299 0.00514817 60 57 52
23.8103 -20.1613 -3.9602 -0.999642 -0.0174603 -0.0202792 60 57 52
23.8103 -7.66134 5.2398 -0.99958 0.0194495 0.0214612 60 57 52
23.8103 -7.66134 -3.9602 -0.999969 0.00571741 -0.00537157 60 57 52
13.9103 -24.1613 -13.9102 0.0207782 0.997065 -0.0736882 60 57 52
25.8103 -30.1613 -13.9102 -0.113486 0.611139 -0.783345 60 57 52
25.8103 -30.1613 -19.6602 -0.294939 0.95103 0.092484 60 57 52
13.9103 -30.1613 -13.9102 0.24793 0.817291 -0.52016 60 57 52
21.4103 -30.1613 -19.6602 -0.0952204 0.989267 0.110835 60 57 52
25.8103 -27.1613 -19.6602 0.59262 0.410272 0.693166 60 57 52
25.8103 -30.1613 -21.6602 -0.00126531 0.542743 0.839898 60 57 52
21.4103 -27.1613 -19.6602 -0.179879 0.520299 0.834825 60 57 52
21.4103 -27.1613 -21.6602 -0.230003 0.15665 0.9605 60 57 52
21.4103 -30.1613 -21.6602 -0.291662 0.735776 0.611201 60 57 52
17.4103 -30.1613 -19.6602 0.157796 0.811222 0.563044 60 57 52
13.9103 -30.1613 -19.6602 0.921442 0.259075 0.289525 60 57 52
17.4103 -30.1613 -21.6602 0.544772 0.161682 0.82285 60 57 52
17.4103 -24.1613 -19.6602 0.733048 0.24027 0.636326 60 57 52
13.9103 -24.1613 -19.6602 0.075987 0.992765 0.0929719 60 57 52
17.4103 -24.1613 -21.6602 0.00244714 0.0155702 0.999876 60 57 52
-18.6897 -24.1613 -16.2602 -0.0393175 0.999171 -0.0105763 60 57 52
-18.6897 -24.1613 -21.6602 -0.0194305 0.0783195 0.996739 60 57 52
-20.1897 -24.1613 -2.5802 -0.03509 0.994757 -0.0960608 60 57 52
-20.1897 -24.1613 -16.2602 -0.990411 0.127345 -0.0535625 60 57 52
-20.1897 -30.1613 -16.2602 -0.257901 0.966045 -0.0156473 60 57 52
-20.1897 -30.1613 -2.5802 -0.411318 0.866373 -0.283222 60 57 52
-39.0897 -30.1613 -7.2102 0.0408987 0.998177 -0.0443838 60 57 52
-35.0097 -30.1613 -19.5602 0.0174877 0.996465 0.0821657 60 57 52
-20.1897 -30.1613 -21.6602 -0.178015 0.643435 0.744515 60 57 52
-39.0897 -30.1613 -2.5802 0.187388 0.350243 -0.917723 60 57 52
-44.0897 -30.1613 -7.2102 0.853789 0.475728 -0.211487 60 57 52
-39.0897 -24.1613 -5.7102 0.566792 0.367147 -0.73753 60 57 52
-40.0097 -30.1613 -19.5602 -0.0621202 0.994705 0.0818671 60 57 52
-39.0897 -24.1613 -2.5802 0.0434724 0.961658 -0.270785 60 57 52
-44.0897 -24.1613 -5.7102 0.710192 0.681054 -0.178304 60 57 52
-44.0897 -24.1613 12.6898 0.600876 0.758816 0.25129 60 57 52
-39.0897 -24.1613 9.7898 0.0286044 0.922112 0.385864 60 57 52
-44.0897 -21.1613 -4.4102 0.232331 -0.565692 -0.791211 60 57 52
-44.0897 -21.1613 -8.6602 0.507687 -0.536287 0.674277 60 57 52
-44.0897 -21.1613 5.5898 0.445858 -0.557128 0.700585 60 57 52
-44.0897 -9.16134 -8.6451 0.989071 0.00176488 0.147428 60 57 52
-44.0897 -7.16134 -4.4102 0.546001 0.00127332 -0.837783 60 57 52
-25.5898 -21.1613 -4.4102 0.0487267 -0.579092 -0.813805 60 57 52
-25.5898 -21.1613 5.5898 0.0390686 -0.618536 0.784784 60 57 52
-25.5898 -7.16134 -4.4102 0.0222205 0.0675008 -0.997472 60 57 52
-25.5898 -20.1613 -3.9602 0.999998 0.00215038 -0.000579073 60 57 52
-43.1897 -9.16134 5.5898 -0.00142045 0.000503203 0.999999 60 57 52
-25.5898 -7.16134 5.5898 0.0314514 0.0607798 0.997656 60 57 52
-25.5898 -20.1613 5.2398 0.999991 0.00319389 0.00275954 60 57 52
-25.5898 -7.66134 -3.9602 0.999994 -0.00333963 -4.94494e-05 60 57 52
-25.5898 -7.66134 5.2398 0.999999 -0.00172269 0.000176102 60 57 52
-43.1897 -7.16134 5.5898 0.244141 0.691163 0.680213 60 57 52
-25.5898 -7.16134 4.5898 0.304259 0.523321 0.795966 60 57 52
-25.5898 -7.16134 -3.4102 0.65662 0.41039 -0.632795 60 57 52
-43.2064 -7.16134 4.5898 0.0172872 0.561717 0.827149 60 57 52
-25.5898 -5.66134 4.5898 0.159742 0.97014 0.182514 60 57 52
-43.2064 -5.66134 4.5898 0.573883 0.806727 0.14089 60 57 52
-43.1897 4.83866 5.5898 0.994403 -0.00446367 0.105561 60 57 52
-43.3571 4.83866 -4.4088 0.996478 -0.00582587 -0.0836539 60 57 52
-43.3404 -5.66134 -3.4102 0.56319 0.810349 -0.161717 60 57 52
-25.5898 -5.66134 -3.4102 0.0386108 0.981957 -0.185121 60 57 52
-43.3404 -7.16134 -3.4102 0.00910967 0.558841 -0.829225 60 57 52
-43.3571 -7.16134 -4.4088 0.434295 0.643355 -0.630461 60 57 52
-44.0897 4.83866 -4.3965 0.970894 -0.0109663 -0.23926 60 57 52
-44.0897 -7.16134 -4.3965 -0.103731 0.0415836 -0.993736 60 57 52
-44.0897 4.83866 -8.6451 0.985295 -0.0147276 0.170226 60 57 52
-44.0897 10.8387 -5.3967 0.998922 0.0419346 -0.0198938 60 57 52
-44.0897 10.8387 -7.645 0.996655 0.0719631 0.0387393 60 57 52
-43.1897 4.83866 -8.6602 0.994403 -0.00367627 0.105587 60 57 52
-43.173 10.8387 -7.6603 0.961477 0.242238 0.129936 60 57 52
-44.0897 -9.16134 -8.6602 -0.0706764 0.0278261 0.997111 60 57 52
-43.1897 -9.16134 -8.6602 -0.0013823 0.00061102 0.999999 60 57 52
-44.0897 -21.1613 -18.6602 0.381913 -0.537621 -0.751736 60 57 52
-25.5898 -21.1613 -8.6602 0.0377136 -0.619033 0.784459 60 57 52
-43.1897 -7.16134 -8.6602 0.244651 0.692134 0.679041 60 57 52
-25.5898 -7.16134 -8.6602 0.0266829 0.0609626 0.997783 60 57 52
-25.5898 -21.1613 -18.6602 0.052069 -0.582427 -0.811214 60 57 52
-25.5898 -20.1613 -8.9602 0.999995 0.00240272 0.00210654 60 57 52
-25.5898 -20.1613 -18.1602 0.999994 -0.00149254 0.00308546 60 57 52
-25.5898 -7.16134 -9.6602 0.304461 0.523339 0.795877 60 57 52
-25.5898 -7.66134 -8.9602 0.999998 -0.00208093 -0.000143529 60 57 52
-25.5898 -7.16134 -18.6602 0.0252483 0.0675428 -0.997397 60 57 52
-25.5898 -7.66134 -18.1602 0.999984 -0.00359389 0.00431201 60 57 52
-44.0897 -7.16134 -18.6602 0.66276 -0.000798038 -0.748831 60 57 52
-43.3571 -7.16134 -18.6588 0.493548 0.62087 -0.609041 60 57 52
-43.3404 -7.16134 -17.6602 0.0369406 0.553783 -0.831842 60 57 52
-25.5898 -7.16134 -17.6602 0.663993 0.412 -0.623995 60 57 52
-25.5898 -5.66134 -17.6602 0.0392202 0.981977 -0.184888 60 57 52
-25.5898 -5.66134 -9.6602 0.158818 0.970377 0.182059 60 57 52
-43.3404 -5.66134 -17.6602 0.562825 0.811123 -0.159083 60 57 52
-43.2064 -5.66134 -9.6602 0.578496 0.803459 0.140699 60 57 52
-43.3571 4.83866 -18.6588 0.996664 -0.00453633 -0.0814851 60 57 52
-43.2064 -7.16134 -9.6602 0.019017 0.564262 0.825377 60 57 52
-43.3739 10.8387 -19.6587 0.997224 0.0575475 -0.0472501 60 57 52
-44.0897 10.8387 -19.6467 0.987554 0.14329 -0.0648457 60 57 52
-44.0897 4.83866 -18.6465 0.468973 -0.0238946 -0.882889 60 57 52
-44.0897 18.0387 -21.6602 0.324509 -0.24191 0.914425 60 57 52
-44.0897 -7.16134 -18.6465 0.101082 -0.0359414 -0.994229 60 57 52
-44.0897 -30.1613 -21.6602 0.821865 0.174721 0.542228 60 57 52
-40.0097 -30.1613 -21.6602 -0.35862 0.4911 0.793859 60 57 52
-40.0097 -27.1613 -21.6602 -0.0276989 0.0230738 0.99935 60 57 52
-40.0097 -27.1613 -19.5602 -0.15356 0.549262 0.82142 60 57 52
-35.0097 -27.1613 -21.6602 0.00572988 0.0179853 0.999822 60 57 52
-35.0097 -27.1613 -19.5602 0.568935 0.435388 0.697675 60 57 52
-35.0097 -30.1613 -21.6602 0.228109 0.54375 0.807652 60 57 52
-22.9897 19.3387 -21.6602 0.272657 -0.0880534 0.958074 60 57 52
-30.1397 19.3387 -21.6602 0.00987296 -0.154535 0.987938 60 57 52
25.8103 -27.1613 -21.6602 0.0424711 0.122771 0.991526 60 57 52
22.2103 19.3387 -21.6602 -0.202322 -0.131446 0.970458 60 57 52
29.3603 19.3387 -21.6602 -0.00459365 -0.069197 0.997592 60 57 52
35.9103 18.6812 -13.9102 0.416012 -0.909359 -0.000198559 60 57 52
35.4817 18.7242 -15.6511 0.870279 -0.306115 -0.385886 60 57 52
35.9103 18.6812 0.339803 0.0343939 -0.999408 4.42589e-07 60 57 52
34.294 18.8434 -16.994 0.430071 -0.644652 -0.632031 60 57 52
35.4079 -0.16134 -15.7852 0.806851 -0.239503 -0.540028 60 57 52
35.9103 -0.16134 -13.9102 0.959978 -0.280071 0.00161057 60 57 52
34.0353 -0.16134 -17.1578 0.450317 -0.0608794 -0.890791 60 57 52
32.6185 19.0116 -17.6321 0.151339 -0.126352 -0.980373 60 57 52
30.2853 -0.16134 -17.1578 -0.520187 -0.140856 -0.842357 60 57 52
28.9127 -0.16134 -15.7852 -0.83199 -0.303007 -0.464736 60 57 52
32.1603 -0.16134 -17.6602 -0.0432785 -0.0115874 -0.998996 60 57 52
30.8383 19.1903 -17.4195 -0.334234 -0.152084 -0.930139 60 57 52
28.5201 19.3387 -14.811 -0.826153 -0.522628 -0.210548 60 57 52
29.3603 19.3387 -16.4047 -0.733565 -0.118984 -0.669123 60 57 52
28.4103 -0.16134 -13.9102 -0.939311 -0.343066 -0.000335381 60 57 52
28.5201 19.3387 -13.0094 -0.703506 -0.688174 0.177471 60 57 52
28.9127 -0.16134 -12.0352 -0.849933 -0.229647 0.474212 60 57 52
35.4079 -0.16134 -12.0352 0.785556 -0.326829 0.525437 60 57 52
29.3603 19.3387 -11.4157 -0.709542 -0.291995 0.641318 60 57 52
28.5201 19.3387 -0.560997 -0.675734 -0.716775 -0.172098 60 57 52
30.2853 -0.16134 -10.6626 -0.523223 -0.0589468 0.850155 60 57 52
34.0353 -0.16134 -10.6626 0.448196 -0.160555 0.879399 60 57 52
35.4817 18.7242 -12.1693 0.9014 -0.18093 0.393372 60 57 52
34.294 18.8434 -10.8264 0.560286 -0.345314 0.752887 60 57 52
35.4817 18.7242 -1.4011 0.863541 -0.327054 -0.38384 60 57 52
32.6185 19.0116 -10.1883 0.109538 -0.443316 0.889647 60 57 52
34.294 18.8434 -2.744 0.563544 -0.333537 -0.755758 60 57 52
32.1603 -0.16134 -10.1602 -0.0372647 -0.0291206 0.998881 60 57 52
30.8383 19.1903 -10.4009 -0.331307 -0.338652 0.880653 60 57 52
32.6185 19.0116 -3.3821 0.143601 -0.230427 -0.962436 60 57 52
30.8383 19.1903 -3.1695 -0.331274 -0.3264 -0.88528 60 57 52
35.4079 -0.16134 -1.5352 0.806157 -0.23792 -0.541761 60 57 52
34.0353 -0.16134 -2.9078 0.45576 -0.0772413 -0.886745 60 57 52
32.1603 -0.16134 -3.4102 -0.0376948 -0.029247 -0.998861 60 57 52
30.2853 -0.16134 -2.9078 -0.519256 -0.14042 -0.843004 60 57 52
29.3603 19.3387 -2.1547 -0.711188 -0.293683 -0.638719 60 57 52
35.9103 -0.16134 0.339803 0.958415 -0.285379 0.00023523 60 57 52
28.9127 -0.16134 -1.5352 -0.83215 -0.303122 -0.464375 60 57 52
28.4103 -0.16134 0.339803 -0.939294 -0.343113 -4.43656e-05 60 57 52
28.5201 19.3387 1.2406 -0.254567 -0.964881 0.0648061 60 57 52
28.9127 -0.16134 2.2148 -0.84993 -0.229759 0.474162 60 57 52
35.4079 -0.16134 2.2148 0.788379 -0.312609 0.529843 60 57 52
29.3603 19.3387 2.8343 -0.723765 -0.204912 0.658919 60 57 52
30.2853 -0.16134 3.5874 -0.523382 -0.0589184 0.850059 60 57 52
34.0353 -0.16134 3.5874 0.447997 -0.160606 0.879491 60 57 52
35.4817 18.7242 2.0807 0.901246 -0.180861 0.393758 60 57 52
34.294 18.8434 3.4236 0.560081 -0.34529 0.75305 60 57 52
32.1603 -0.16134 4.0898 -0.0372657 -0.0291216 0.998881 60 57 52
32.6185 19.0116 4.0617 0.10952 -0.443281 0.889667 60 57 52
30.8383 19.1903 3.8491 -0.330998 -0.338686 0.880757 60 57 52
34.294 18.8434 11.506 0.56352 -0.333517 -0.755786 60 57 52
32.6185 19.0116 10.8679 0.143506 -0.230418 -0.962452 60 57 52
30.8383 19.1903 11.0805 -0.334486 -0.325311 -0.884473 60 57 52
35.4817 18.7242 12.8489 0.863568 -0.327006 -0.38382 60 57 52
35.4079 -0.16134 12.7148 0.802612 -0.251612 -0.540837 60 57 52
34.0353 -0.16134 11.3422 0.455671 -0.0772777 -0.886788 60 57 52
32.1603 -0.16134 10.8398 -0.0374952 -0.029215 -0.99887 60 57 52
30.2853 -0.16134 11.3422 -0.519004 -0.140348 -0.843171 60 57 52
29.3603 19.3387 12.0953 -0.6924 -0.372999 -0.617619 60 57 52
28.9127 -0.16134 12.7148 -0.832128 -0.303082 -0.464441 60 57 52
28.5201 19.3387 13.689 -0.703597 -0.687996 -0.177802 60 57 52
28.4103 -0.16134 14.5898 -0.939269 -0.34318 0.00106435 60 57 52
35.9103 -0.16134 14.5898 0.959017 -0.283305 -0.00494511 60 57 52
28.5201 19.3387 15.4906 -0.812592 -0.545077 0.206363 60 57 52
22.2103 19.3387 22.8398 -0.381905 -0.12191 -0.916126 60 57 52
22.2103 34.2387 -21.6602 -0.916986 -0.385294 0.103372 60 57 52
11.5078 35.8387 -21.6602 -0.00824139 -0.353975 0.935219 60 57 52
11.5078 35.8387 -10.6602 -0.102426 -0.992054 -0.0730627 60 57 52
22.2103 34.2387 22.8398 -0.679767 -0.720363 -0.137823 60 57 52
11.5078 35.8387 -13.6602 -0.08146 -0.881818 0.464501 60 57 52
-22.9897 35.8387 -21.6602 0.614489 -0.628822 0.476431 60 57 52
-12.9871 35.8387 -13.6602 0.0235978 -0.982065 0.187058 60 57 52
8.45662 39.8108 -13.6602 -0.246645 -0.247671 0.936924 60 57 52
-9.93598 39.8108 -13.6602 0.12843 -0.128998 0.983293 60 57 52
-12.9871 35.8387 -10.6602 0.0132451 -0.995577 -0.0930109 60 57 52
-22.9897 35.8387 22.8398 0.792395 -0.527005 -0.307205 60 57 52
-12.9871 35.8387 11.8398 0.0147723 -0.978842 0.204085 60 57 52
-12.9871 35.8387 14.8398 0.0456313 -0.981915 -0.183744 60 57 52
11.5078 35.8387 22.8398 -0.00825049 -0.353969 -0.935221 60 57 52
-22.9897 19.3387 22.8398 0.140093 -0.0906937 -0.985976 60 57 52
11.5078 35.8387 14.8398 -0.111125 -0.884503 -0.453107 60 57 52
-9.93598 39.8108 14.8398 0.112055 -0.143714 -0.983255 60 57 52
-9.93598 39.8108 11.8398 0.247189 -0.248257 0.936625 60 57 52
11.5078 35.8387 11.8398 -0.0382252 -0.996819 0.0699299 60 57 52
8.45662 39.8108 11.8398 -0.128659 -0.129208 0.983236 60 57 52
8.45662 39.8108 -10.6602 -0.112273 -0.143947 -0.983196 60 57 52
-9.93598 39.8108 -10.6602 0.215659 -0.276548 -0.936489 60 57 52
-5.66458 42.4265 -10.6602 0.12078 -0.324272 -0.938222 60 57 52
4.18522 42.4265 -10.6602 -0.234777 -0.760301 -0.605659 60 57 52
4.18522 42.4265 -13.6602 -0.194666 -0.436557 0.878364 60 57 52
-5.66458 42.4265 -13.6602 0.30536 -0.807489 0.504695 60 57 52
-0.739677 43.3387 -10.6602 0.0582974 -0.979462 -0.193017 60 57 52
-0.739677 43.3387 -13.6602 -0.0599938 -0.978797 0.195852 60 57 52
8.45662 39.8108 14.8398 -0.21519 -0.275892 -0.936791 60 57 52
4.18522 42.4265 14.8398 -0.140636 -0.457144 -0.878203 60 57 52
4.18522 42.4265 11.8398 -0.324607 -0.726276 0.605932 60 57 52
-5.66458 42.4265 14.8398 0.229032 -0.614182 -0.755198 60 57 52
-5.66458 42.4265 11.8398 0.207783 -0.54972 0.809094 60 57 52
-0.739677 43.3387 14.8398 0.0581863 -0.978896 -0.195902 60 57 52
-0.739677 43.3387 11.8398 -0.0600097 -0.979367 0.192974 60 57 52
29.3603 19.3387 22.8398 -0.00501552 -0.0756638 -0.997121 60 57 52
17.4103 -24.1613 22.8398 0.00458018 0.015581 -0.999868 60 57 52
28.9127 -0.16134 16.4648 -0.848321 -0.229523 0.477149 60 57 52
29.3603 19.3387 17.0843 -0.733556 -0.129356 0.667205 60 57 52
30.2853 -0.16134 17.8374 -0.520458 -0.0595381 0.851809 60 57 52
35.4079 -0.16134 16.4648 0.789834 -0.322235 0.521849 60 57 52
34.0353 -0.16134 17.8374 0.449609 -0.151697 0.88025 60 57 52
30.8383 19.1903 18.0991 -0.335513 -0.166759 0.927158 60 57 52
32.1603 -0.16134 18.3398 -0.0391605 -0.0275972 0.998852 60 57 52
32.6185 19.0116 18.3117 0.149131 -0.142519 0.978493 60 57 52
34.294 18.8434 17.6736 0.408024 -0.680582 0.608543 60 57 52
35.4817 18.7242 16.3307 0.867515 -0.312444 0.387035 60 57 52
42.3103 -24.1613 22.8398 -0.154739 0.0706944 -0.985423 60 57 52
35.9103 18.6812 14.5898 0.432127 -0.901813 -7.6338e-05 60 57 52
42.3103 4.83866 19.8415 -0.945283 -0.010219 0.32609 60 57 52
42.3103 -9.16134 19.8415 -0.987686 -0.00244833 0.156432 60 57 52
42.3103 -9.16134 19.8398 -0.0926408 -0.0196019 0.995507 60 57 52
25.8103 -30.1613 22.8398 -0.230516 0.838662 -0.493465 60 57 52
-18.6897 -24.1613 22.8398 -0.00856226 0.0660038 -0.997783 60 57 52
13.9103 -24.1613 20.8398 0.152588 0.98723 -0.0457547 60 57 52
17.4103 -24.1613 20.8398 0.264533 0.177484 -0.947904 60 57 52
17.4103 -30.1613 20.8398 0.136235 0.983559 -0.118541 60 57 52
17.4103 -30.1613 22.8398 0.21698 0.32556 -0.920288 60 57 52
13.9103 -30.1613 20.8398 0.595508 0.36181 -0.717261 60 57 52
25.8103 -30.1613 15.0898 -0.131516 0.728183 0.672646 60 57 52
13.9103 -30.1613 15.0898 0.513649 0.670375 0.535501 60 57 52
13.9103 -24.1613 15.0898 0.0126087 0.995856 0.090062 60 57 52
-20.1897 -24.1613 9.7898 -0.0992408 0.9876 0.121647 60 57 52
-18.6897 -24.1613 17.4398 -0.101131 0.994789 0.0129164 60 57 52
-39.0897 -24.1613 12.6898 0.75628 0.374919 0.536169 60 57 52
-20.1897 -30.1613 9.7898 -0.142968 0.7023 0.697377 60 57 52
-39.0897 -30.1613 9.7898 0.29588 0.559978 0.773873 60 57 52
-39.0897 -30.1613 14.1898 0.055535 0.990098 0.128922 60 57 52
-20.1897 -30.1613 17.4398 -0.25936 0.965581 0.0196254 60 57 52
-44.0897 -30.1613 14.1898 0.905453 0.362748 0.220382 60 57 52
-44.0897 -30.1613 22.8398 0.179344 0.245088 -0.952768 60 57 52
-20.1897 -30.1613 22.8398 -0.305631 0.67739 -0.669128 60 57 52
-20.1897 -24.1613 17.4398 -0.955073 0.242186 0.170826 60 57 52
-44.0897 18.0387 22.8398 0.357923 -0.238076 -0.90289 60 57 52
-30.1397 19.3387 22.8398 0.00910066 -0.167834 -0.985773 60 57 52
-30.0953 19.3387 14.7941 0.258066 -0.966005 0.0154028 60 57 52
-30.0953 19.3387 14.3856 0.15724 -0.987534 -0.00717566 60 57 52
-30.0953 19.3387 0.544104 0.0379784 -0.999276 0.00205639 60 57 52
-30.0897 -0.16134 14.5898 0.918204 -0.396104 -0.00156974 60 57 52
-30.1397 19.3387 15.2001 0.949065 -0.082567 0.304069 60 57 52
-30.1397 19.3387 13.9795 0.932271 -0.213351 -0.292152 60 57 52
-30.1397 19.3387 0.950104 0.942813 -0.142732 0.301216 60 57 52
-30.0953 19.3387 0.135602 0.152158 -0.988322 -0.00823734 60 57 52
-30.0897 -0.16134 0.339803 0.918172 -0.396183 7.14841e-05 60 57 52
-30.5921 -0.16134 2.2148 0.837325 -0.317749 0.444885 60 57 52
-30.8768 19.27 2.6385 0.742789 -0.278613 0.608802 60 57 52
-30.5921 -0.16134 12.7148 0.855999 -0.24507 -0.455199 60 57 52
-30.8768 19.27 12.2911 0.743599 -0.285672 -0.604527 60 57 52
-31.9647 -0.16134 3.5874 0.530724 -0.156641 0.832944 60 57 52
-32.3291 19.1347 3.7721 0.3596 -0.342328 0.868043 60 57 52
-37.0873 -0.16134 2.2148 -0.801625 -0.250796 0.542677 60 57 52
-37.5897 -0.16134 0.339803 -0.95769 -0.287802 7.8488e-05 60 57 52
-33.8397 -0.16134 4.0898 0.0539792 -0.0285035 0.998135 60 57 52
-35.7147 -0.16134 3.5874 -0.443171 -0.0765228 0.893165 60 57 52
-34.1459 18.9654 4.0773 -0.0873969 -0.448756 0.889371 60 57 52
-32.3291 19.1347 11.1575 0.360675 -0.329072 -0.872711 60 57 52
-35.8888 18.8029 3.4805 -0.545666 -0.350953 0.760973 60 57 52
-37.1372 18.6866 2.1256 -0.89654 -0.185407 0.402294 60 57 52
-37.1372 18.6866 12.804 -0.8574 -0.33472 -0.390931 60 57 52
-35.8888 18.8029 11.4491 -0.549362 -0.338327 -0.764026 60 57 52
-34.1459 18.9654 10.8523 -0.118481 -0.232986 -0.965235 60 57 52
-31.9647 -0.16134 11.3422 0.536082 -0.075816 -0.840754 60 57 52
-33.8397 -0.16134 10.8398 0.0523492 -0.0281193 -0.998233 60 57 52
-35.7147 -0.16134 11.3422 -0.439059 -0.158589 -0.884351 60 57 52
-37.0873 -0.16134 12.7148 -0.783011 -0.323818 -0.531071 60 57 52
-37.5897 -0.16134 14.5898 -0.958494 -0.285105 -0.00188013 60 57 52
-30.5921 -0.16134 16.4648 0.839025 -0.317729 0.441684 60 57 52
-37.5897 18.6444 14.5898 -0.438393 -0.898784 0.000100754 60 57 52
-37.1372 18.6866 16.3756 -0.862299 -0.319703 0.392722 60 57 52
-37.0873 -0.16134 16.4648 -0.804752 -0.248608 0.539044 60 57 52
-31.9647 -0.16134 17.8374 0.531123 -0.149048 0.834082 60 57 52
-30.8768 19.27 16.8885 0.761636 -0.143539 0.631907 60 57 52
-32.3291 19.1347 18.0221 0.366779 -0.179468 0.912833 60 57 52
-33.8397 -0.16134 18.3398 0.0524346 -0.0261989 0.998281 60 57 52
-35.7147 -0.16134 17.8374 -0.447687 -0.0737795 0.891141 60 57 52
-35.8888 18.8029 17.7305 -0.390863 -0.693875 0.604783 60 57 52
-34.1459 18.9654 18.3273 -0.123054 -0.146647 0.981505 60 57 52
-37.5897 18.6444 0.339803 -0.0424558 -0.999098 -2.90561e-06 60 57 52
-37.1372 18.6866 -1.446 -0.857279 -0.334767 -0.391156 60 57 52
-37.5897 18.6444 -13.9102 -0.421976 -0.906607 -2.17933e-05 60 57 52
-37.0873 -0.16134 -1.5352 -0.782369 -0.325712 -0.530858 60 57 52
-35.7147 -0.16134 -2.9078 -0.439125 -0.158866 -0.884268 60 57 52
-35.8888 18.8029 -2.8008 -0.549227 -0.338329 -0.764122 60 57 52
-30.5921 -0.16134 -1.5352 0.856125 -0.24506 -0.454968 60 57 52
-30.1397 19.3387 -0.270494 0.930722 -0.216379 -0.294851 60 57 52
-30.8768 19.27 -1.9589 0.741125 -0.287499 -0.606694 60 57 52
-31.9647 -0.16134 -2.9078 0.535932 -0.0757355 -0.840857 60 57 52
-30.1397 19.3387 -13.2999 0.94417 -0.139295 0.298564 60 57 52
-30.8768 19.27 -11.6115 0.745438 -0.276348 0.606592 60 57 52
-30.0953 19.3387 -13.706 0.158646 -0.987306 0.00768655 60 57 52
-30.0897 -0.16134 -13.9102 0.918155 -0.396221 -9.93199e-05 60 57 52
-30.5921 -0.16134 -12.0352 0.837293 -0.317752 0.444942 60 57 52
-31.9647 -0.16134 -10.6626 0.53084 -0.156684 0.832862 60 57 52
-32.3291 19.1347 -10.4779 0.360273 -0.342165 0.867829 60 57 52
-37.0873 -0.16134 -12.0352 -0.801646 -0.250518 0.542775 60 57 52
-37.5897 -0.16134 -13.9102 -0.958271 -0.285862 0.000112837 60 57 52
-33.8397 -0.16134 -10.1602 0.0540976 -0.0284889 0.998129 60 57 52
-35.7147 -0.16134 -10.6626 -0.442578 -0.0765163 0.89346 60 57 52
-34.1459 18.9654 -10.1727 -0.0870563 -0.448732 0.889416 60 57 52
-32.3291 19.1347 -3.0925 0.360201 -0.329165 -0.872872 60 57 52
-35.8888 18.8029 -10.7696 -0.545757 -0.350948 0.76091 60 57 52
-37.1372 18.6866 -12.1244 -0.896619 -0.185449 0.402098 60 57 52
-34.1459 18.9654 -3.3977 -0.11855 -0.232979 -0.965229 60 57 52
-33.8397 -0.16134 -3.4102 0.0539441 -0.0285019 -0.998137 60 57 52
-37.1372 18.6866 -15.696 -0.864073 -0.311143 -0.395687 60 57 52
-37.0873 -0.16134 -15.7852 -0.784268 -0.324367 -0.528876 60 57 52
-35.8888 18.8029 -17.0508 -0.412613 -0.657999 -0.629911 60 57 52
-35.7147 -0.16134 -17.1578 -0.44124 -0.15708 -0.883535 60 57 52
-34.1459 18.9654 -17.6477 -0.12444 -0.129775 -0.983704 60 57 52
-33.8397 -0.16134 -17.6602 0.0492942 -0.0256385 -0.998455 60 57 52
-31.9647 -0.16134 -17.1578 0.532131 -0.0727761 -0.843528 60 57 52
-30.5921 -0.16134 -15.7852 0.856268 -0.245224 -0.45461 60 57 52
-32.3291 19.1347 -17.3425 0.367232 -0.164685 -0.915434 60 57 52
-30.8768 19.27 -16.2089 0.762875 -0.133538 -0.632604 60 57 52
-30.1397 19.3387 -14.5205 0.949668 -0.0774403 -0.303535 60 57 52
-30.0953 19.3387 -14.1145 0.273978 -0.961611 -0.0155118 60 57 52
-44.0897 -9.16134 19.8549 0.993633 0.000230657 0.112663 60 57 52
-44.0897 10.8387 20.855 0.996196 0.0733535 0.0470389 60 57 52
-44.0897 10.8387 8.8398 0.978527 0.179136 -0.101958 60 57 52
-44.0897 10.8387 6.605 0.996635 0.072143 0.0389036 60 57 52
-43.1813 10.8387 20.8398 -0.0303957 0.880085 0.473843 60 57 52
-44.0897 4.83866 19.8549 0.525658 -0.0690833 0.847886 60 57 52
-43.0897 10.8387 20.8398 0.999798 0.0184719 0.00797358 60 57 52
-43.0897 4.83866 19.8398 0.999911 -0.00142265 0.013294 60 57 52
-43.1897 4.83866 19.8398 0.0325076 -0.0334353 0.998912 60 57 52
-43.0897 10.8387 8.8398 0.994657 0.0928175 -0.0451948 60 57 52
-43.1897 -9.16134 19.8398 -0.0433579 0.00527823 0.999046 60 57 52
-43.0897 -9.16134 19.8398 -0.0016202 0.000182264 0.999999 60 57 52
-44.0897 -9.16134 19.8398 -0.0569055 0.00420015 0.998371 60 57 52
-44.0897 -21.1613 19.8398 0.538114 -0.522094 0.661704 60 57 52
-43.0897 -7.16134 19.8398 0.24576 0.681448 0.68937 60 57 52
-25.5898 -21.1613 19.8398 0.0275709 -0.621557 0.782883 60 57 52
-25.5898 -7.16134 19.8398 0.0469358 0.0609187 0.997039 60 57 52
-44.0897 -21.1613 9.8398 0.232355 -0.565544 -0.79131 60 57 52
-25.5898 -21.1613 9.8398 0.0710333 -0.580551 -0.81112 60 57 52
-25.5898 -20.1613 19.3398 0.999983 -0.00152436 -0.0056275 60 57 52
-25.5898 -7.16134 18.8398 0.246518 0.536373 0.807176 60 57 52
-25.5898 -7.66134 19.3398 0.999995 -0.00195462 -0.00248292 60 57 52
-25.5898 -20.1613 10.1398 0.999997 0.000176135 0.00244168 60 57 52
-25.5898 -7.16134 9.8398 0.014593 0.0328748 -0.999353 60 57 52
-25.5898 -7.66134 10.1398 0.999992 -0.00401904 0.000515359 60 57 52
-25.5898 -7.16134 10.8398 0.596241 0.639485 -0.485341 60 57 52
-44.0897 -7.16134 9.8398 0.51153 0.00108209 -0.859264 60 57 52
-43.0897 -7.16134 9.8398 0.319177 0.897647 -0.303901 60 57 52
-43.0897 -7.16134 10.8398 0.0108044 0.323353 -0.946217 60 57 52
-25.5898 -5.66134 10.8398 0.0390539 0.982074 -0.184405 60 57 52
-25.5898 -5.66134 18.8398 0.162569 0.970201 0.17967 60 57 52
-43.0897 -5.66134 10.8398 0.569591 0.807734 -0.152092 60 57 52
-43.0897 4.83866 9.8398 0.990528 -0.00788961 -0.137084 60 57 52
-43.0897 -5.66134 18.8398 0.577111 0.802565 0.151104 60 57 52
-43.0897 -7.16134 18.8398 0.0203569 0.54977 0.835068 60 57 52
-44.0897 4.83866 9.8398 0.980101 -0.0123179 -0.198118 60 57 52
-44.0897 4.83866 5.6049 0.985127 -0.0148574 0.171184 60 57 52
-44.0897 -9.16134 5.6049 0.989068 0.00143341 0.14745 60 57 52
-43.173 10.8387 6.5897 0.961359 0.242301 0.130684 60 57 52
-43.3739 10.8387 -5.4087 0.99693 0.0607518 -0.0493967 60 57 52
-44.0897 -9.16134 5.5898 -0.0722381 0.0225909 0.997132 60 57 52
3 0 1 2
3 3 0 4
3 0 2 4
3 0 5 6
3 0 3 5
3 6 1 0
3 1 7 2
3 7 1 6
3 4 2 7
3 7 8 4
3 8 7 9
3 9 7 6
3 9 6 10
3 6 11 10
3 11 6 5
3 10 12 9
3 12 10 13
3 10 11 13
3 13 11 5
3 14 13 15
3 13 5 15
3 12 13 16
3 13 14 17
3 13 17 16
3 3 15 5
3 14 15 3
3 3 4 18
3 18 14 3
3 19 4 20
3 4 8 20
3 18 4 21
3 4 19 21
3 22 19 23
3 19 20 23
3 21 19 22
3 24 21 22
3 18 21 25
3 21 24 25
3 26 24 27
3 24 22 27
3 28 24 26
3 24 28 25
3 18 25 29
3 30 25 28
3 29 25 30
3 26 31 28
3 32 30 28
3 32 28 33
3 28 31 33
3 34 29 30
3 34 30 32
3 33 34 32
3 34 33 29
3 33 31 29
3 35 29 36
3 35 18 29
3 36 29 31
3 26 36 31
3 36 26 37
3 36 37 38
3 38 39 36
3 36 39 35
3 16 37 40
3 26 40 37
3 37 16 38
3 39 38 17
3 38 16 17
3 39 17 35
3 14 41 17
3 17 41 35
3 18 35 14
3 35 41 14
3 40 12 16
3 40 42 12
3 40 27 42
3 40 26 27
3 12 42 43
3 12 43 9
3 42 44 43
3 44 42 45
3 42 27 45
3 22 45 27
3 44 45 22
3 46 44 22
3 46 47 44
3 47 43 44
3 48 9 43
3 43 47 48
3 8 9 49
3 9 48 49
3 50 51 48
3 51 49 48
3 50 48 47
3 49 52 8
3 52 49 53
3 53 49 54
3 49 51 54
3 54 51 50
3 55 50 47
3 50 56 54
3 50 55 56
3 53 54 57
3 54 58 57
3 58 54 56
3 55 59 56
3 60 56 59
3 60 58 56
3 55 47 61
3 61 62 55
3 62 59 55
3 62 60 59
3 61 63 62
3 63 64 62
3 60 62 65
3 62 64 65
3 65 64 63
3 66 65 63
3 63 67 68
3 63 61 67
3 68 66 63
3 60 65 69
3 66 70 65
3 70 69 65
3 70 66 68
3 68 71 72
3 68 72 70
3 71 68 73
3 68 67 73
3 72 69 70
3 74 75 69
3 75 60 69
3 69 72 74
3 71 74 72
3 74 76 75
3 74 77 76
3 74 71 77
3 75 76 78
3 57 75 53
3 75 78 53
3 75 57 60
3 57 58 60
3 79 53 78
3 79 80 53
3 80 52 53
3 78 81 79
3 82 83 79
3 83 80 79
3 82 79 81
3 52 80 84
3 84 80 85
3 80 83 85
3 85 83 82
3 86 82 81
3 82 87 85
3 82 86 87
3 84 85 88
3 85 89 88
3 89 85 87
3 86 90 87
3 91 87 90
3 91 89 87
3 86 81 92
3 92 93 86
3 93 90 86
3 93 91 90
3 92 94 93
3 94 95 93
3 91 93 96
3 93 95 96
3 96 95 94
3 91 96 97
3 98 99 96
3 99 97 96
3 98 96 94
3 100 101 97
3 101 91 97
3 97 102 100
3 102 97 99
3 103 102 99
3 103 99 98
3 103 98 94
3 103 104 102
3 103 105 104
3 94 105 103
3 104 100 102
3 100 106 101
3 100 107 106
3 107 100 104
3 104 108 107
3 108 104 109
3 104 105 109
3 94 110 105
3 111 105 110
3 109 105 111
3 110 94 92
3 92 112 110
3 113 110 114
3 110 112 114
3 113 111 110
3 115 109 111
3 111 113 115
3 113 114 115
3 115 114 109
3 114 112 109
3 92 116 112
3 116 109 112
3 116 108 109
3 108 116 117
3 116 118 117
3 92 81 116
3 81 118 116
3 119 118 120
3 121 118 119
3 121 117 118
3 118 81 120
3 81 78 120
3 120 122 119
3 76 120 78
3 120 76 122
3 76 77 122
3 119 122 77
3 71 123 77
3 123 119 77
3 71 73 124
3 124 123 71
3 123 125 119
3 125 123 126
3 123 124 126
3 127 128 124
3 128 126 124
3 127 124 129
3 124 73 129
3 129 73 67
3 130 129 67
3 129 130 127
3 130 128 127
3 130 67 128
3 67 126 128
3 61 125 126
3 61 126 67
3 61 47 125
3 47 46 125
3 125 46 119
3 23 46 22
3 23 119 46
3 119 23 121
3 121 23 131
3 132 23 133
3 23 20 133
3 131 23 132
3 134 132 135
3 132 133 135
3 134 131 132
3 136 133 137
3 136 138 133
3 138 135 133
3 20 137 133
3 138 139 135
3 139 140 135
3 134 135 141
3 135 140 141
3 141 142 134
3 131 134 142
3 140 143 141
3 144 141 143
3 144 145 141
3 145 142 141
3 143 140 139
3 146 143 139
3 146 144 143
3 144 146 145
3 131 145 147
3 146 148 145
3 145 148 147
3 145 131 142
3 131 147 149
3 147 150 149
3 151 147 148
3 147 151 150
3 151 152 150
3 152 149 150
3 153 152 151
3 151 154 153
3 151 155 154
3 155 151 148
3 153 156 152
3 152 156 149
3 153 157 158
3 154 159 153
3 159 157 153
3 156 153 158
3 160 156 158
3 156 160 149
3 157 161 158
3 160 158 161
3 160 161 162
3 162 163 160
3 163 149 160
3 164 161 165
3 164 166 161
3 166 162 161
3 165 161 157
3 165 167 164
3 167 168 164
3 169 170 164
3 170 166 164
3 169 164 171
3 164 168 171
3 170 169 172
3 169 171 172
3 166 170 173
3 170 174 173
3 174 170 175
3 170 172 175
3 171 176 172
3 176 177 172
3 177 175 172
3 174 175 177
3 174 178 173
3 174 179 178
3 177 179 174
3 179 177 176
3 180 176 171
3 179 176 180
3 179 181 178
3 180 182 179
3 182 183 179
3 183 181 179
3 178 183 184
3 184 173 178
3 178 181 183
3 183 185 184
3 183 186 185
3 182 187 183
3 187 186 183
3 180 187 182
3 188 180 171
3 180 188 187
3 188 186 187
3 186 189 185
3 186 188 189
3 189 188 171
3 171 168 189
3 185 189 190
3 189 191 190
3 168 191 189
3 168 167 192
3 168 190 191
3 192 190 168
3 185 190 193
3 193 190 194
3 190 192 194
3 195 196 192
3 196 194 192
3 195 192 167
3 165 197 167
3 198 195 167
3 167 197 198
3 199 165 157
3 165 200 198
3 198 197 165
3 200 165 199
3 195 198 201
3 200 202 198
3 202 201 198
3 203 200 199
3 202 200 204
3 200 203 205
3 200 205 204
3 202 206 201
3 202 204 207
3 207 206 202
3 207 204 205
3 203 208 205
3 208 209 205
3 209 207 205
3 203 199 208
3 199 210 208
3 211 212 208
3 212 213 208
3 208 210 211
3 213 209 208
3 206 209 213
3 206 207 209
3 213 212 214
3 213 215 206
3 213 214 215
3 216 212 211
3 212 216 214
3 215 214 217
3 214 216 217
3 215 217 206
3 201 217 195
3 217 218 195
3 217 216 218
3 201 219 217
3 217 219 206
3 216 211 218
3 220 218 221
3 218 222 221
3 218 211 222
3 218 220 195
3 220 196 195
3 220 221 196
3 194 221 223
3 221 210 223
3 221 222 210
3 221 194 196
3 222 224 210
3 211 224 222
3 210 224 211
3 225 210 199
3 210 225 223
3 199 157 225
3 226 225 159
3 225 157 159
3 223 225 227
3 225 226 227
3 226 159 227
3 159 228 227
3 159 154 228
3 223 227 229
3 227 228 229
3 228 230 229
3 154 230 228
3 155 231 154
3 154 231 230
3 231 229 230
3 229 148 223
3 231 155 229
3 229 155 148
3 232 148 146
3 233 148 232
3 223 148 233
3 234 146 139
3 146 235 232
3 146 20 236
3 234 20 146
3 146 236 235
3 234 139 138
3 234 137 20
3 136 234 138
3 234 136 137
3 20 8 236
3 237 238 8
3 8 239 237
3 52 239 8
3 238 240 8
3 240 236 8
3 241 240 238
3 238 242 241
3 238 237 242
3 241 243 240
3 243 244 240
3 240 244 236
3 245 243 241
3 241 246 245
3 246 241 242
3 244 243 247
3 245 247 243
3 247 248 244
3 244 248 236
3 235 236 249
3 236 250 249
3 248 250 236
3 247 245 248
3 245 250 248
3 250 245 246
3 246 249 250
3 246 251 249
3 251 246 242
3 251 252 249
3 235 249 252
3 252 251 253
3 254 253 251
3 251 242 254
3 253 255 252
3 252 256 235
3 252 255 256
3 253 257 255
3 254 258 253
3 258 257 253
3 254 259 260
3 254 242 259
3 260 258 254
3 242 237 259
3 260 259 261
3 261 259 237
3 258 260 262
3 263 262 260
3 260 261 263
3 264 258 262
3 264 257 258
3 264 262 265
3 263 266 262
3 266 267 262
3 267 265 262
3 268 263 261
3 268 269 263
3 269 266 263
3 270 267 266
3 266 269 270
3 270 271 267
3 271 272 267
3 267 272 265
3 271 270 269
3 271 269 268
3 261 273 268
3 268 274 271
3 274 268 273
3 272 271 274
3 274 256 272
3 255 272 256
3 272 255 265
3 274 275 256
3 275 274 273
3 275 276 256
3 256 276 235
3 276 275 277
3 278 277 275
3 275 273 278
3 277 279 276
3 277 280 279
3 278 281 277
3 281 280 277
3 278 282 283
3 278 273 282
3 283 281 278
3 284 281 285
3 281 283 285
3 284 280 281
3 286 280 284
3 280 286 279
3 284 285 286
3 287 285 283
3 287 288 285
3 288 289 285
3 289 286 285
3 283 290 287
3 283 282 290
3 291 287 290
3 291 292 287
3 292 288 287
3 293 289 288
3 288 292 293
3 293 294 289
3 294 295 289
3 289 295 286
3 295 279 286
3 296 297 295
3 295 294 296
3 276 295 297
3 276 279 295
3 294 292 291
3 294 293 292
3 291 296 294
3 296 298 297
3 298 296 299
3 296 291 299
3 298 300 297
3 297 301 276
3 297 300 301
3 276 301 235
3 235 301 302
3 232 235 303
3 235 302 303
3 304 302 305
3 304 306 302
3 306 303 302
3 301 305 302
3 307 303 308
3 303 306 308
3 307 232 303
3 309 306 304
3 306 309 310
3 310 308 306
3 307 308 311
3 311 308 310
3 312 307 311
3 232 307 312
3 313 312 311
3 313 314 312
3 314 315 312
3 316 312 315
3 316 232 312
3 317 315 314
3 317 314 318
3 318 314 319
3 314 313 319
3 305 315 317
3 316 315 301
3 315 305 301
3 305 317 320
3 320 304 305
3 311 320 313
3 311 304 320
3 313 320 321
3 321 320 317
3 322 304 311
3 309 304 322
3 311 323 322
3 310 323 311
3 323 324 322
3 324 325 322
3 322 326 309
3 326 322 325
3 309 326 310
3 310 327 323
3 326 327 310
3 327 324 323
3 328 325 324
3 328 324 327
3 329 325 328
3 329 326 325
3 329 327 326
3 328 327 329
3 330 317 318
3 321 317 330
3 330 318 331
3 330 332 321
3 330 331 332
3 318 333 331
3 333 318 334
3 318 319 334
3 333 335 331
3 336 331 335
3 331 336 332
3 321 332 334
3 332 336 334
3 319 321 334
3 319 313 321
3 335 334 336
3 335 333 334
3 300 337 301
3 301 338 316
3 301 337 338
3 339 340 300
3 300 298 339
3 340 337 300
3 339 341 340
3 342 339 298
3 342 343 339
3 343 341 339
3 341 344 340
3 340 344 337
3 344 341 345
3 345 341 343
3 345 343 346
3 347 343 342
3 343 347 346
3 342 348 347
3 342 299 348
3 298 299 342
3 52 347 348
3 52 337 347
3 337 346 347
3 345 346 344
3 344 346 337
3 337 349 338
3 337 52 349
3 349 52 84
3 348 350 52
3 350 239 52
3 299 350 348
3 290 299 291
3 290 350 299
3 350 290 239
3 261 239 273
3 273 239 282
3 290 282 239
3 239 261 237
3 349 84 351
3 88 101 84
3 101 351 84
3 351 352 349
3 101 106 351
3 106 352 351
3 101 88 91
3 88 89 91
3 352 117 349
3 352 353 117
3 352 106 353
3 349 117 121
3 349 121 354
3 349 354 338
3 108 117 107
3 117 353 107
3 106 107 353
3 355 338 356
3 338 357 356
3 357 338 358
3 338 359 358
3 354 359 338
3 338 355 316
3 356 357 360
3 357 358 360
3 358 354 361
3 358 359 354
3 358 362 360
3 361 362 358
3 360 362 356
3 362 361 363
3 362 363 356
3 121 361 354
3 361 121 363
3 363 121 131
3 364 365 363
3 363 149 364
3 363 131 149
3 365 356 363
3 149 163 364
3 162 366 163
3 364 163 367
3 163 368 367
3 368 163 366
3 366 162 369
3 369 368 366
3 367 368 369
3 370 367 369
3 364 367 370
3 162 371 369
3 370 369 372
3 369 371 372
3 372 373 370
3 374 364 370
3 370 365 374
3 370 373 365
3 373 355 365
3 373 372 355
3 364 374 365
3 365 355 356
3 372 375 355
3 375 376 355
3 355 376 316
3 316 377 378
3 316 376 377
3 316 379 232
3 378 379 316
3 378 377 380
3 377 381 380
3 376 381 377
3 378 380 382
3 382 383 378
3 378 383 379
3 384 379 385
3 379 383 385
3 232 379 384
3 383 386 385
3 386 383 387
3 387 383 382
3 380 388 382
3 388 389 382
3 387 382 389
3 390 387 391
3 390 386 387
3 389 391 387
3 386 392 393
3 386 390 392
3 393 385 386
3 391 394 390
3 394 395 390
3 390 395 392
3 394 391 396
3 396 391 397
3 391 389 397
3 395 394 396
3 395 396 398
3 398 392 395
3 393 392 399
3 392 398 399
3 399 398 400
3 401 398 396
3 398 401 400
3 402 396 397
3 402 401 396
3 403 397 389
3 403 404 397
3 404 402 397
3 405 401 402
3 402 404 405
3 405 406 401
3 406 400 401
3 405 403 388
3 405 404 403
3 388 406 405
3 389 388 403
3 406 388 380
3 400 406 407
3 407 406 380
3 381 408 380
3 407 380 408
3 409 407 410
3 407 411 410
3 409 400 407
3 408 411 407
3 412 408 413
3 408 381 413
3 408 412 411
3 413 381 376
3 412 413 414
3 414 413 376
3 414 415 412
3 415 416 412
3 412 416 411
3 417 411 416
3 411 417 410
3 416 418 417
3 416 415 418
3 415 414 418
3 418 414 376
3 417 418 376
3 417 376 375
3 410 417 375
3 409 410 375
3 419 400 409
3 409 375 419
3 419 399 400
3 419 393 399
3 419 420 393
3 419 375 223
3 419 421 420
3 223 421 419
3 420 422 393
3 393 422 385
3 423 422 424
3 422 420 424
3 425 422 423
3 422 425 385
3 384 385 426
3 385 425 426
3 427 425 428
3 425 427 426
3 423 428 425
3 426 429 384
3 430 426 427
3 430 429 426
3 384 431 232
3 384 429 431
3 431 429 432
3 429 433 432
3 433 429 430
3 434 430 435
3 434 433 430
3 427 435 430
3 433 436 437
3 433 434 436
3 437 432 433
3 435 438 434
3 438 439 434
3 434 439 436
3 438 435 440
3 427 441 435
3 441 440 435
3 439 438 440
3 439 440 442
3 442 436 439
3 437 436 443
3 436 442 443
3 443 442 420
3 442 424 420
3 424 442 440
3 441 444 440
3 444 424 440
3 428 441 427
3 428 445 441
3 445 444 441
3 423 424 444
3 444 445 423
3 423 445 428
3 420 421 443
3 421 437 443
3 421 446 437
3 223 446 421
3 446 447 437
3 437 447 432
3 447 446 448
3 448 446 223
3 193 194 223
3 193 223 375
3 448 223 233
3 449 448 450
3 449 447 448
3 450 448 233
3 450 451 449
3 449 452 453
3 449 451 452
3 453 447 449
3 451 450 454
3 454 450 233
3 452 451 454
3 452 454 455
3 455 453 452
3 432 453 456
3 453 455 456
3 447 453 432
3 233 455 454
3 233 456 455
3 457 432 456
3 457 456 233
3 457 431 432
3 232 431 457
3 457 233 232
3 458 459 375
3 375 372 458
3 460 461 375
3 461 193 375
3 375 459 460
3 460 459 462
3 459 463 462
3 458 463 459
3 464 462 465
3 462 466 465
3 464 467 462
3 467 460 462
3 463 466 462
3 466 463 458
3 468 469 466
3 469 465 466
3 468 466 458
3 468 458 470
3 372 471 458
3 471 470 458
3 470 469 468
3 469 470 471
3 465 469 472
3 471 473 469
3 473 474 469
3 474 472 469
3 372 371 471
3 371 162 471
3 162 475 471
3 473 471 475
3 476 473 475
3 474 473 477
3 473 476 477
3 474 478 472
3 478 474 479
3 474 477 479
3 476 480 477
3 479 477 480
3 476 475 481
3 480 476 481
3 481 482 480
3 482 479 480
3 478 479 483
3 483 479 482
3 481 483 482
3 475 484 481
3 483 481 485
3 481 484 485
3 486 483 485
3 483 486 487
3 487 488 483
3 483 488 478
3 486 485 489
3 489 485 490
3 485 484 490
3 486 489 487
3 488 487 491
3 487 489 491
3 488 491 478
3 490 465 491
3 465 472 491
3 472 492 491
3 491 489 490
3 491 492 478
3 478 492 472
3 493 460 490
3 460 467 490
3 490 467 465
3 484 493 490
3 467 464 465
3 494 493 484
3 494 461 493
3 461 460 493
3 484 495 494
3 495 484 475
3 184 496 494
3 496 461 494
3 184 494 495
3 193 461 496
3 497 193 496
3 497 496 184
3 173 184 495
3 185 497 184
3 497 185 193
3 495 498 173
3 166 495 475
3 166 498 495
3 475 162 166
3 173 498 166
3 265 257 264
3 257 265 255
3 206 219 201
