ply
format ascii 1.0
comment Created by Open3D
element vertex 246
property double x
property double y
property double z
property double nx
property double ny
property double nz
property uchar red
property uchar green
property uchar blue
element face 488
property list uchar uint vertex_indices
end_header
-5.56669 -25.9385 2.69098 0.857867 -0.467922 0.212401 86 125 26
-0.594688 -15.3117 3.26458 0.849826 -0.461018 0.255455 86 125 26
0.853012 -15.9897 -0.173816 0.87556 -0.481622 -0.0378834 86 125 26
-3.91789 -26.6575 -0.982716 0.891985 -0.447983 -0.0606083 86 125 26
-5.44659 -12.9086 12.7794 0.42675 -0.220229 0.877145 86 125 26
-0.644788 -15.3718 7.38898 0.788389 -0.416081 0.453122 86 125 26
-5.53619 -26.1744 7.04868 0.718502 -0.488559 0.49504 86 125 26
-11.242 -23.7862 13.3259 0.414447 -0.296222 0.860515 86 125 26
-11.4158 -9.30135 14.2376 -0.0216666 0.0446608 0.998767 86 125 26
-17.8724 -20.5217 14.8116 -0.0878745 0.0130875 0.996046 86 125 26
-21.0556 -18.9805 12.5473 -0.336476 0.150666 0.929561 86 125 26
-14.4693 -7.50195 12.3551 -0.230172 0.1499 0.961536 86 125 26
-22.7592 -2.39175 6.01448 -0.769686 0.453053 0.449808 86 125 26
-18.0573 -5.32115 11.9419 -0.523303 0.300659 0.797344 86 125 26
-24.7734 -17.0579 11.7522 -0.507925 0.196228 0.838753 86 125 26
-29.2633 -14.7309 5.81098 -0.83591 0.355176 0.418454 86 125 26
-23.4926 -1.96425 -0.926716 -0.841426 0.529769 -0.106528 86 125 26
-30.1238 -14.4279 -1.11032 -0.910404 0.410262 -0.0533906 86 125 26
-29.0005 -14.8766 -4.78172 -0.906638 0.389526 -0.162103 86 125 26
-21.8024 -2.87445 -4.31652 -0.823428 0.523965 -0.217779 86 125 26
-17.4971 -4.93565 -12.6274 -0.382384 0.289731 -0.877404 86 125 26
-21.8362 -2.69805 -7.83692 -0.725839 0.475126 -0.497406 86 125 26
-28.8625 -14.7909 -8.45322 -0.807098 0.250681 -0.534558 86 125 26
-24.0902 -16.7601 -13.528 -0.442244 0.150672 -0.884148 86 125 26
-11.4978 -8.42365 -14.3761 0.0482553 0.0129709 -0.998751 86 125 26
-17.4631 -19.9035 -14.6213 0.00969235 -0.0271106 -0.999585 86 125 26
-14.49 -21.3143 -12.8767 0.206781 -0.128064 -0.96997 86 125 26
-8.67599 -10.0969 -12.6721 0.192313 -0.0850881 -0.977638 86 125 26
-0.786988 -14.9041 -7.25902 0.756166 -0.392247 -0.52379 86 125 26
-5.42119 -12.1153 -12.5528 0.43672 -0.21207 -0.874244 86 125 26
-11.0839 -23.0704 -12.717 0.404703 -0.19543 -0.893321 86 125 26
-6.20239 -25.4521 -8.01212 0.7502 -0.363228 -0.552508 86 125 26
6.38041 -4.11855 3.37358 0.807831 -0.559755 0.18462 86 125 26
7.48101 -4.78655 0.0649841 0.805865 -0.590204 -0.0473391 86 125 26
1.76201 -1.29425 12.5629 0.375979 -0.282594 0.882485 86 125 26
6.13981 -4.05005 7.37908 0.679628 -0.463102 0.568896 86 125 26
-3.65199 2.72475 13.963 -0.045196 0.0041742 0.998969 86 125 26
-6.46219 4.75275 12.2122 -0.229469 0.140087 0.963182 86 125 26
-14.1702 10.4554 6.28858 -0.745599 0.50115 0.439238 86 125 26
-9.80699 7.16215 11.9305 -0.449036 0.293105 0.844071 86 125 26
-14.7851 11.0189 -0.534716 -0.817677 0.573089 -0.0545252 86 125 26
-13.0979 10.001 -3.78522 -0.772545 0.551408 -0.314837 86 125 26
-9.06939 7.45575 -11.9515 -0.391764 0.303266 -0.868649 86 125 26
-13.1348 10.0698 -7.16622 -0.702833 0.508791 -0.497149 86 125 26
-3.64629 3.57625 -13.8573 -0.0229636 0.0172695 -0.999587 86 125 26
-1.06209 1.66165 -12.1774 0.190811 -0.114589 -0.974916 86 125 26
6.11111 -3.66975 -6.87272 0.718915 -0.492711 -0.490304 86 125 26
1.95501 -0.598054 -12.0823 0.476189 -0.307028 -0.824001 86 125 26
13.1159 4.01735 3.72738 0.721914 -0.64713 0.245077 86 125 26
14.168 3.29925 0.354484 0.731557 -0.675366 -0.0932987 86 125 26
8.65351 7.26145 13.1217 0.344188 -0.348181 0.871955 86 125 26
12.9237 4.13595 7.79718 0.658672 -0.598195 0.456414 86 125 26
3.44431 11.7727 14.501 -0.0545817 -0.0127159 0.998428 86 125 26
0.695512 14.0936 12.7592 -0.218544 0.112087 0.969368 86 125 26
-6.83859 20.4976 6.88168 -0.715439 0.517392 0.469524 86 125 26
-2.58779 16.796 12.4867 -0.437399 0.282344 0.853794 86 125 26
-7.48079 21.2468 -0.0302159 -0.785751 0.61171 -0.0916893 86 125 26
-5.79279 20.1424 -3.44022 -0.729446 0.597657 -0.332738 86 125 26
-1.74269 17.0386 -12.1005 -0.400019 0.335216 -0.853003 86 125 26
-5.82879 20.1247 -6.98062 -0.695861 0.55627 -0.454248 86 125 26
3.60111 12.5781 -14.1328 -0.0535683 0.00690711 -0.99854 86 125 26
6.06261 10.4204 -12.3882 0.173321 -0.193317 -0.965706 86 125 26
12.8769 4.53135 -6.86182 0.639094 -0.59518 -0.487155 86 125 26
8.95711 7.91755 -12.2284 0.373944 -0.356633 -0.856142 86 125 26
20.9905 12.2489 3.63468 0.744387 -0.654362 0.133038 86 125 26
22.0045 11.4677 0.0359841 0.774994 -0.63195 0.00488095 86 125 26
16.6092 16.0548 13.5833 0.354491 -0.308022 0.88287 86 125 26
20.8363 12.4307 7.93018 0.613167 -0.557471 0.559689 86 125 26
11.4806 21.2734 14.9952 0.0236424 0.0797329 0.996536 86 125 26
8.89391 23.8468 13.3983 -0.168558 0.197458 0.965711 86 125 26
1.74461 30.8741 7.97898 -0.588153 0.659951 0.467484 86 125 26
5.77261 26.8017 13.2707 -0.317559 0.323958 0.891183 86 125 26
1.10901 31.8143 1.06828 -0.656425 0.748951 -0.0904337 86 125 26
2.87561 30.5295 -2.60472 -0.684893 0.688655 -0.238069 86 125 26
7.17461 26.5243 -12.2261 -0.339814 0.403033 -0.849759 86 125 26
2.91811 30.3314 -6.40832 -0.566092 0.595952 -0.569545 86 125 26
12.4843 21.3238 -14.6892 -0.0275996 0.127232 -0.991489 86 125 26
14.7652 18.9376 -12.8902 0.290709 -0.210784 -0.933305 86 125 26
20.9621 12.658 -7.25352 0.69546 -0.562206 -0.447503 86 125 26
17.4791 16.2064 -12.676 0.389427 -0.312004 -0.866603 86 125 26
27.0877 20.0905 3.81378 0.817535 -0.549467 0.172403 86 125 26
27.8487 19.4852 0.604884 0.866976 -0.494757 -0.0597379 86 125 26
23.7454 23.4674 12.6239 0.439985 -0.150858 0.885243 86 125 26
27.1865 20.0963 7.71948 0.743101 -0.499691 0.445095 86 125 26
19.5264 28.4584 13.3558 0.155223 0.267739 0.950906 86 125 26
17.4299 30.8523 11.6851 0.0046415 0.309644 0.950841 86 125 26
12.2132 37.0519 7.06758 -0.342681 0.808713 0.478072 86 125 26
15.2004 33.4476 11.6727 -0.137294 0.560265 0.816856 86 125 26
10.7963 38.7394 0.861184 -0.404924 0.905544 0.126598 86 125 26
11.6897 38.1418 -2.53152 -0.491017 0.812731 -0.31364 86 125 26
15.6399 33.8446 -11.0257 -0.133338 0.534069 -0.83486 86 125 26
12.1004 37.5264 -5.78872 -0.410021 0.750716 -0.517984 86 125 26
19.9916 28.8862 -12.881 0.300794 0.151166 -0.941632 86 125 26
21.7906 26.66 -10.9724 0.388161 -0.00493786 -0.921578 86 125 26
26.8151 20.8035 -5.73822 0.80696 -0.425763 -0.409319 86 125 26
24.0226 24.0887 -10.6488 0.608969 -0.194487 -0.768981 86 125 26
30.85 27.4203 3.52658 0.931008 -0.346229 0.115544 86 125 26
31.439 26.9215 1.33168 0.970761 -0.234482 -0.0513902 86 125 26
28.8468 29.7251 9.78608 0.60616 0.172909 0.776319 86 125 26
31.1209 27.3196 6.41828 0.869272 -0.19263 0.455257 86 125 26
26.1125 33.3549 9.61208 0.422878 0.447755 0.787839 86 125 26
24.6822 35.2285 8.66978 0.212736 0.450052 0.867293 86 125 26
21.0142 40.0985 5.37568 -0.0636449 0.888285 0.454862 86 125 26
23.2519 37.102 8.42858 0.0895766 0.685843 0.722216 86 125 26
20.0794 41.4203 0.921384 -0.0513887 0.990525 0.127355 86 125 26
20.7432 40.9848 -1.52102 -0.181683 0.960176 -0.212256 86 125 26
23.2302 37.7773 -7.51222 0.185431 0.643503 -0.742644 86 125 26
20.9244 40.5316 -3.82802 -0.0398531 0.852538 -0.521144 86 125 26
26.136 34.0689 -8.79522 0.511244 0.355823 -0.782317 86 125 26
27.2727 32.4439 -7.18552 0.567028 0.0682691 -0.820865 86 125 26
30.7273 27.9472 -3.38802 0.91282 -0.237181 -0.332423 86 125 26
28.8424 30.4737 -7.16072 0.760505 -0.0635459 -0.646215 86 125 26
31.0661 33.316 1.78988 0.999027 0.0309252 0.0314332 86 125 26
31.5174 32.9358 0.731684 0.989228 0.108693 0.0980494 86 125 26
30.251 34.5063 4.45808 0.762637 0.406874 0.50283 86 125 26
31.1865 33.3035 2.94278 0.923579 0.219794 0.314152 86 125 26
28.9239 36.2826 4.95888 0.706856 0.48273 0.517037 86 125 26
28.2358 37.2304 4.66378 0.51843 0.58242 0.626112 86 125 26
26.503 39.6624 2.79828 0.327488 0.898072 0.29363 86 125 26
27.5477 38.1782 4.36858 0.41818 0.75278 0.508377 86 125 26
26.1119 40.2803 0.571384 0.361874 0.928146 0.087131 86 125 26
26.3121 40.0561 -0.593616 0.252817 0.957717 -0.137338 86 125 26
27.5714 38.4666 -3.52412 0.512413 0.684745 -0.518225 86 125 26
26.5123 39.832 -1.75852 0.347429 0.861235 -0.3709 86 125 26
28.9502 36.6081 -4.15492 0.675853 0.544495 -0.496737 86 125 26
29.606 35.6966 -3.79492 0.744921 0.288955 -0.60133 86 125 26
31.1845 33.4646 -1.61432 0.976158 0.0837303 -0.200263 86 125 26
30.2618 34.7851 -3.43492 0.900322 0.16466 -0.402875 86 125 26
-11.4436 -35.7755 1.52558 0.739907 -0.629354 0.237594 86 125 26
-12.0308 -35.6054 4.65558 0.536183 -0.696378 0.477038 86 125 26
-17.1272 -33.9973 11.0341 0.362762 -0.581642 0.728077 86 125 26
-23.1683 -31.5984 12.8193 -0.0126255 -0.336808 0.941489 86 125 26
-26.1492 -30.4718 11.8503 -0.378394 -0.101094 0.920108 86 125 26
-29.0705 -29.302 10.9771 -0.658695 -0.165881 0.733896 86 125 26
-33.6519 -27.2125 5.81128 -0.898482 0.0491411 0.43625 86 125 26
-33.6809 -27.353 -0.517816 -0.986467 0.142802 -0.0805608 86 125 26
-32.6636 -27.6552 -3.78142 -0.972644 0.100822 -0.209281 86 125 26
-31.9019 -27.8456 -6.82972 -0.832369 -0.117375 -0.541651 86 125 26
-27.5969 -29.2525 -11.2542 -0.594029 -0.134644 -0.793096 86 125 26
-21.6584 -31.5078 -13.0338 -0.171355 -0.248226 -0.953426 86 125 26
-18.8562 -32.5365 -11.8262 0.116077 -0.302877 -0.945934 86 125 26
-15.6209 -33.9104 -12.2036 0.165894 -0.421104 -0.891712 86 125 26
-11.0749 -35.688 -8.18032 0.624433 -0.543374 -0.561096 86 125 26
-9.60739 -36.3414 -1.90022 0.795523 -0.605867 -0.00830138 86 125 26
-16.2428 -39.3551 0.848584 0.339313 -0.906899 0.249803 86 125 26
-17.107 -39.0227 2.85158 0.255675 -0.90961 0.327476 86 125 26
-20.4168 -37.9919 6.35508 0.12803 -0.872308 0.471897 86 125 26
-24.4912 -36.6344 7.92798 -0.206601 -0.749109 0.629405 86 125 26
-26.3689 -35.9633 7.12118 -0.420912 -0.689126 0.589863 86 125 26
-28.2466 -35.2923 6.88608 -0.58468 -0.702184 0.40631 86 125 26
-30.6743 -34.3652 3.66838 -0.763845 -0.57429 0.294503 86 125 26
-31.2839 -34.0675 -0.567816 -0.864265 -0.503009 -0.00522889 86 125 26
-30.6943 -34.2176 -2.58622 -0.870868 -0.441314 -0.216406 86 125 26
-30.1047 -34.3677 -4.60462 -0.693397 -0.63021 -0.349336 86 125 26
-27.3274 -35.2316 -7.44292 -0.59285 -0.594662 -0.543052 86 125 26
-23.4778 -36.5526 -8.61802 -0.337051 -0.666962 -0.664499 86 125 26
-21.714 -37.0967 -7.74672 -0.151956 -0.689423 -0.708241 86 125 26
-19.512 -37.9733 -7.97482 -0.0953005 -0.866348 -0.490265 86 125 26
-16.5449 -39.0471 -5.42192 0.15569 -0.913558 -0.375729 86 125 26
-15.6139 -39.4329 -1.45112 0.311734 -0.944404 -0.104512 86 125 26
-21.0613 -39.2352 0.186284 -0.111818 -0.993472 0.022585 86 125 26
-21.3374 -39.1628 1.04808 -0.182444 -0.980919 0.067177 86 125 26
-22.6214 -38.7665 2.39598 -0.164559 -0.975826 0.14382 86 125 26
-24.258 -38.2315 2.96498 -0.284652 -0.933614 0.217575 86 125 26
-25.0242 -37.9681 2.76738 -0.352866 -0.913922 0.200581 86 125 26
-25.7905 -37.7046 2.56968 -0.360443 -0.932245 0.0316368 86 125 26
-26.8263 -37.3235 1.34058 -0.468091 -0.878773 0.0929961 86 125 26
-27.1223 -37.181 -0.340516 -0.525716 -0.850597 0.010311 86 125 26
-26.8737 -37.2434 -1.16932 -0.542528 -0.834379 -0.0973362 86 125 26
-26.625 -37.3059 -1.99812 -0.374804 -0.924689 -0.0668784 86 125 26
-25.4485 -37.672 -3.21322 -0.439726 -0.880785 -0.175667 86 125 26
-23.8666 -38.1964 -3.71272 -0.370823 -0.897418 -0.239021 86 125 26
-23.0744 -38.4693 -3.55002 -0.272982 -0.915544 -0.295398 86 125 26
-22.2822 -38.7423 -3.38722 -0.289258 -0.954248 -0.07576 86 125 26
-21.1388 -39.1531 -2.29092 -0.198211 -0.96791 -0.154475 86 125 26
-20.7852 -39.3076 -0.675416 -0.119115 -0.990864 -0.0632436 86 125 26
-22.2561 -38.1092 -0.0589159 -0.615541 -0.777074 -0.131395 86 125 26
-22.3967 -38.0717 0.380484 -0.49228 -0.855235 -0.161967 86 125 26
-23.047 -37.8665 1.06328 -0.490555 -0.828349 -0.270544 86 125 26
-23.8808 -37.5888 1.35318 -0.377725 -0.859102 -0.345353 86 125 26
-24.2758 -37.4511 1.25928 -0.23046 -0.911965 -0.339424 86 125 26
-24.6709 -37.3134 1.16548 -0.197969 -0.959867 -0.198653 86 125 26
-25.2091 -37.1133 0.557284 -0.0800556 -0.978982 -0.187578 86 125 26
-25.3627 -37.0389 -0.295316 -0.00679739 -0.99813 -0.0607528 86 125 26
-25.2293 -37.0736 -0.725816 0.0127154 -0.996638 0.0809336 86 125 26
-25.096 -37.1083 -1.15632 -0.140157 -0.983622 0.11333 86 125 26
-24.4752 -37.3051 -1.80252 -0.133218 -0.967004 0.217157 86 125 26
-23.6561 -37.58 -2.07402 -0.240901 -0.927144 0.287002 86 125 26
-23.2541 -37.7202 -1.98942 -0.36781 -0.877463 0.307854 86 125 26
-22.8521 -37.8605 -1.90472 -0.425835 -0.891322 0.155594 86 125 26
-22.2842 -38.069 -1.33322 -0.517198 -0.84199 0.153486 86 125 26
-22.1155 -38.1466 -0.498216 -0.591193 -0.80619 0.0234302 86 125 26
-23.1117 -37.8125 -0.224916 -0.323675 -0.945883 -0.0232254 86 125 26
-23.1705 -37.797 -0.0407159 -0.323346 -0.945998 -0.0231425 86 125 26
-23.4419 -37.7111 0.243684 -0.323581 -0.94591 -0.023444 86 125 26
-23.792 -37.5942 0.364584 -0.323714 -0.945855 -0.0238143 86 125 26
-23.9603 -37.5355 0.326084 -0.324001 -0.945756 -0.0238466 86 125 26
-24.1287 -37.4769 0.287684 -0.32412 -0.945715 -0.0238655 86 125 26
-24.3599 -37.3912 0.0348841 -0.32425 -0.945666 -0.0240189 86 125 26
-24.4264 -37.3594 -0.324116 -0.324323 -0.945642 -0.0239721 86 125 26
-24.369 -37.3744 -0.507016 -0.324442 -0.945597 -0.0241702 86 125 26
-24.3116 -37.3894 -0.689816 -0.324636 -0.945534 -0.0240202 86 125 26
-24.0454 -37.4738 -0.967716 -0.324712 -0.945513 -0.0238393 86 125 26
-23.6976 -37.5904 -1.08512 -0.324948 -0.945438 -0.0235892 86 125 26
-23.5282 -37.6494 -1.04842 -0.324723 -0.945518 -0.0234859 86 125 26
-23.3587 -37.7085 -1.01172 -0.324418 -0.945629 -0.0232203 86 125 26
-23.1222 -37.7957 -0.765516 -0.324185 -0.945713 -0.0230393 86 125 26
-23.0529 -37.8281 -0.409216 -0.32384 -0.945835 -0.0228903 86 125 26
-23.5909 -37.6525 -0.0583159 -0.324077 -0.945735 -0.0236716 86 125 26
-23.7398 -37.5939 -0.360316 -0.324211 -0.94569 -0.0236045 86 125 26
-23.8926 -37.5339 -0.664016 -0.324525 -0.94558 -0.0236902 86 125 26
30.2369 36.6819 0.602484 0.953096 0.287159 0.0956469 86 125 26
30.2727 36.641 0.379384 0.93295 0.359951 -0.0063409 86 125 26
30.009 36.976 1.14568 0.817519 0.49397 0.296068 86 125 26
30.2012 36.7227 0.825484 0.891775 0.398794 0.213775 86 125 26
29.7458 37.3355 1.25808 0.788763 0.546148 0.28209 86 125 26
29.6136 37.5209 1.19628 0.712965 0.619454 0.32857 86 125 26
29.2875 37.9878 0.806084 0.594162 0.792425 0.137965 86 125 26
29.4814 37.7063 1.13438 0.642312 0.718685 0.266321 86 125 26
29.2179 38.102 0.356984 0.616062 0.785843 0.054031 86 125 26
29.2551 38.0596 0.131284 0.575804 0.815521 -0.0580983 86 125 26
29.4896 37.7569 -0.425316 0.7112 0.647038 -0.274841 86 125 26
29.2923 38.0171 -0.0944159 0.625038 0.755852 -0.194975 86 125 26
29.7551 37.3937 -0.542916 0.772925 0.584079 -0.247868 86 125 26
29.8859 37.2099 -0.478516 0.82762 0.484283 -0.28375 86 125 26
30.2054 36.7516 -0.0750159 0.940061 0.331566 -0.0796765 86 125 26
30.0167 37.0261 -0.414016 0.902726 0.381488 -0.19888 86 125 26
29.9844 37.0361 0.474484 0.810215 0.585682 0.0229981 86 125 26
30.002 37.0161 0.365384 0.810349 0.585504 0.0228072 86 125 26
29.8728 37.1801 0.740684 0.810296 0.585574 0.02287 86 125 26
29.9668 37.056 0.583684 0.8101 0.585849 0.0227668 86 125 26
29.7442 37.356 0.795884 0.810319 0.585537 0.0230345 86 125 26
29.6801 37.4458 0.765484 0.810368 0.585468 0.023052 86 125 26
29.5223 37.6719 0.573784 0.810494 0.585293 0.0230494 86 125 26
29.6161 37.5357 0.734984 0.810472 0.58532 0.0231249 86 125 26
29.4886 37.7271 0.354684 0.8105 0.585279 0.023176 86 125 26
29.5066 37.7067 0.245084 0.810517 0.585238 0.0236354 86 125 26
29.6199 37.5606 -0.0241159 0.810625 0.585107 0.0231687 86 125 26
29.5245 37.6863 0.135484 0.810524 0.585243 0.0232701 86 125 26
29.7488 37.3841 -0.0807159 0.810763 0.584919 0.0231153 86 125 26
29.8126 37.2945 -0.0495159 0.810668 0.585048 0.0231419 86 125 26
29.9689 37.0703 0.145384 0.810369 0.585483 0.0226359 86 125 26
29.8764 37.2049 -0.0184159 0.810465 0.585338 0.022937 86 125 26
29.7453 37.3716 0.357584 0.810432 0.585375 0.0231412 86 125 26
29.6826 37.4661 0.166684 0.810642 0.585075 0.0233817 86 125 26
29.809 37.2759 0.549184 0.810328 0.585525 0.023 86 125 26
3 3 2 1
3 3 1 0
3 7 6 5
3 7 5 4
3 9 7 4
3 9 4 8
3 9 8 11
3 9 11 10
3 15 14 13
3 15 13 12
3 17 15 12
3 17 12 16
3 17 16 19
3 17 19 18
3 23 22 21
3 23 21 20
3 25 23 20
3 25 20 24
3 24 27 26
3 24 26 25
3 31 30 29
3 31 29 28
3 3 31 28
3 3 28 2
3 2 33 32
3 2 32 1
3 4 5 35
3 4 35 34
3 8 4 34
3 8 34 36
3 8 36 37
3 8 37 11
3 12 13 39
3 12 39 38
3 16 12 38
3 16 38 40
3 16 40 41
3 16 41 19
3 20 21 43
3 20 43 42
3 24 20 42
3 24 42 44
3 24 44 45
3 24 45 27
3 28 29 47
3 28 47 46
3 2 28 46
3 2 46 33
3 33 49 48
3 33 48 32
3 34 35 51
3 34 51 50
3 36 34 50
3 36 50 52
3 36 52 53
3 36 53 37
3 38 39 55
3 38 55 54
3 40 38 54
3 40 54 56
3 56 57 41
3 56 41 40
3 42 43 59
3 42 59 58
3 44 42 58
3 44 58 60
3 44 60 61
3 44 61 45
3 46 47 63
3 46 63 62
3 33 46 62
3 33 62 49
3 65 64 48
3 65 48 49
3 50 51 67
3 50 67 66
3 52 50 66
3 52 66 68
3 52 68 69
3 52 69 53
3 54 55 71
3 54 71 70
3 56 54 70
3 56 70 72
3 72 73 57
3 72 57 56
3 58 59 75
3 58 75 74
3 60 58 74
3 60 74 76
3 60 76 77
3 60 77 61
3 62 63 79
3 62 79 78
3 49 62 78
3 49 78 65
3 65 81 80
3 65 80 64
3 66 67 83
3 66 83 82
3 68 66 82
3 68 82 84
3 68 84 85
3 68 85 69
3 70 71 87
3 70 87 86
3 72 70 86
3 72 86 88
3 72 88 89
3 72 89 73
3 74 75 91
3 74 91 90
3 76 74 90
3 76 90 92
3 92 93 77
3 92 77 76
3 78 79 95
3 78 95 94
3 65 78 94
3 65 94 81
3 81 97 96
3 81 96 80
3 82 83 99
3 82 99 98
3 84 82 98
3 84 98 100
3 84 100 101
3 84 101 85
3 86 87 103
3 86 103 102
3 88 86 102
3 88 102 104
3 88 104 105
3 88 105 89
3 90 91 107
3 90 107 106
3 92 90 106
3 92 106 108
3 92 108 109
3 92 109 93
3 94 95 111
3 94 111 110
3 81 94 110
3 81 110 97
3 113 112 96
3 113 96 97
3 98 99 115
3 98 115 114
3 100 98 114
3 100 114 116
3 100 116 117
3 100 117 101
3 102 103 119
3 102 119 118
3 104 102 118
3 104 118 120
3 104 120 121
3 104 121 105
3 106 107 123
3 106 123 122
3 108 106 122
3 108 122 124
3 108 124 125
3 108 125 109
3 110 111 127
3 110 127 126
3 97 110 126
3 97 126 113
3 6 129 128
3 6 128 0
3 6 7 130
3 6 130 129
3 7 9 131
3 7 131 130
3 14 133 132
3 14 132 10
3 14 15 134
3 14 134 133
3 15 17 135
3 15 135 134
3 22 137 136
3 22 136 18
3 22 23 138
3 22 138 137
3 23 25 139
3 23 139 138
3 141 140 26
3 141 26 30
3 30 31 142
3 30 142 141
3 31 3 143
3 31 143 142
3 145 144 128
3 145 128 129
3 129 130 146
3 129 146 145
3 130 131 147
3 130 147 146
3 133 149 148
3 133 148 132
3 133 134 150
3 133 150 149
3 134 135 151
3 134 151 150
3 137 153 152
3 137 152 136
3 137 138 154
3 137 154 153
3 138 139 155
3 138 155 154
3 141 157 156
3 141 156 140
3 141 142 158
3 141 158 157
3 142 143 159
3 142 159 158
3 161 160 144
3 161 144 145
3 145 146 162
3 145 162 161
3 146 147 163
3 146 163 162
3 149 165 164
3 149 164 148
3 149 150 166
3 149 166 165
3 150 151 167
3 150 167 166
3 153 169 168
3 153 168 152
3 153 154 170
3 153 170 169
3 154 155 171
3 154 171 170
3 157 173 172
3 157 172 156
3 157 158 174
3 157 174 173
3 158 159 175
3 158 175 174
3 161 177 176
3 161 176 160
3 161 162 178
3 161 178 177
3 162 163 179
3 162 179 178
3 165 181 180
3 165 180 164
3 165 166 182
3 165 182 181
3 166 167 183
3 166 183 182
3 169 185 184
3 169 184 168
3 169 170 186
3 169 186 185
3 170 171 187
3 170 187 186
3 173 189 188
3 173 188 172
3 173 174 190
3 173 190 189
3 174 175 191
3 174 191 190
3 177 193 192
3 177 192 176
3 177 178 194
3 177 194 193
3 178 179 195
3 178 195 194
3 181 197 196
3 181 196 180
3 181 182 198
3 181 198 197
3 182 183 199
3 182 199 198
3 185 201 200
3 185 200 184
3 185 186 202
3 185 202 201
3 186 187 203
3 186 203 202
3 189 205 204
3 189 204 188
3 189 190 206
3 189 206 205
3 190 191 207
3 190 207 206
3 194 208 192
3 194 192 193
3 196 208 194
3 196 194 195
3 197 198 199
3 197 199 209
3 202 210 200
3 202 200 201
3 204 210 202
3 204 202 203
3 205 206 207
3 205 207 209
3 113 212 211
3 113 211 112
3 114 115 214
3 114 214 213
3 116 114 213
3 116 213 215
3 116 215 216
3 116 216 117
3 118 119 218
3 118 218 217
3 120 118 217
3 120 217 219
3 120 219 220
3 120 220 121
3 122 123 222
3 122 222 221
3 124 122 221
3 124 221 223
3 124 223 224
3 124 224 125
3 126 127 226
3 126 226 225
3 113 126 225
3 113 225 212
3 212 228 227
3 212 227 211
3 213 214 230
3 213 230 229
3 215 213 229
3 215 229 231
3 215 231 232
3 215 232 216
3 217 218 234
3 217 234 233
3 219 217 233
3 219 233 235
3 219 235 236
3 219 236 220
3 221 222 238
3 221 238 237
3 223 221 237
3 223 237 239
3 223 239 240
3 223 240 224
3 225 226 242
3 225 242 241
3 212 225 241
3 212 241 228
3 235 233 234
3 235 234 243
3 236 244 237
3 236 237 238
3 237 244 240
3 237 240 239
3 243 245 227
3 243 227 228
3 228 241 242
3 228 242 243
3 229 245 232
3 229 232 231
3 0 1 5
3 0 5 6
3 11 13 14
3 11 14 10
3 32 35 5
3 32 5 1
3 11 37 39
3 11 39 13
3 32 48 51
3 32 51 35
3 37 53 55
3 37 55 39
3 64 67 51
3 64 51 48
3 53 69 71
3 53 71 55
3 64 80 83
3 64 83 67
3 85 87 71
3 85 71 69
3 96 99 83
3 96 83 80
3 101 103 87
3 101 87 85
3 112 115 99
3 112 99 96
3 117 119 103
3 117 103 101
3 0 128 143
3 0 143 3
3 132 131 9
3 132 9 10
3 144 159 143
3 144 143 128
3 132 148 147
3 132 147 131
3 160 175 159
3 160 159 144
3 148 164 163
3 148 163 147
3 176 191 175
3 176 175 160
3 180 179 163
3 180 163 164
3 192 207 191
3 192 191 176
3 180 196 195
3 180 195 179
3 192 208 209
3 192 209 207
3 196 197 209
3 196 209 208
3 211 214 115
3 211 115 112
3 216 218 119
3 216 119 117
3 227 230 214
3 227 214 211
3 232 234 218
3 232 218 216
3 227 245 229
3 227 229 230
3 232 245 243
3 232 243 234
3 18 19 21
3 18 21 22
3 27 29 30
3 27 30 26
3 19 41 43
3 19 43 21
3 45 47 29
3 45 29 27
3 41 57 59
3 41 59 43
3 45 61 63
3 45 63 47
3 73 75 59
3 73 59 57
3 61 77 79
3 61 79 63
3 73 89 91
3 73 91 75
3 93 95 79
3 93 79 77
3 105 107 91
3 105 91 89
3 109 111 95
3 109 95 93
3 121 123 107
3 121 107 105
3 125 127 111
3 125 111 109
3 18 136 135
3 18 135 17
3 140 139 25
3 140 25 26
3 152 151 135
3 152 135 136
3 156 155 139
3 156 139 140
3 168 167 151
3 168 151 152
3 172 171 155
3 172 155 156
3 184 183 167
3 184 167 168
3 188 187 171
3 188 171 172
3 200 199 183
3 200 183 184
3 204 203 187
3 204 187 188
3 200 210 209
3 200 209 199
3 204 205 209
3 204 209 210
3 220 222 123
3 220 123 121
3 224 226 127
3 224 127 125
3 236 238 222
3 236 222 220
3 240 242 226
3 240 226 224
3 236 235 243
3 236 243 244
3 240 244 243
3 240 243 242
